<?xml version="1.0" encoding="UTF-8"?>
<svg xmlns="http://www.w3.org/2000/svg" viewBox="0 0 78.37 75.17">
  <defs>
    <style>
      .cls-1 {
        fill: #8dc8f7;
      }
    </style>
  </defs>
  <g id="Layer_2" data-name="Layer 2">
    <g>
      <path d="M40.58,5.94c.15-1.89.83-3.61,2.63-4.41,1.53-.68,3.07-.75,4.67-.59.47.05.96.16,1.42.22-.64.82.34,1.65.89,2.21l-.53-1.25c-.09-.21,0-.48-.04-.68-.03-.13-.26,0-.21-.17l1.58.42c-.42.67.23.84.37,1.26.41,1.21.08,2.37.3,3.48.17.81.88,1.35,1.58,1.68.15-.2-.27-.44-.41-.64-1.13-1.53-.68-1.66-.8-3.41-.04-.58-.18-1.27-.31-1.84,1.19.38,2.1,1.4,2.91,2.29l2.76.65-1.81,1.76c-1.96-.05-.69,2.04.29,1.09.3-.3.21-.98.63-1.47.17-.19,1.09-.95,1.31-1.01.54-.16,1.27.55,1.79.69l-.07.22-5.14,4.93-.37.63v-2.79s-.1-.5-.21-.47c.16.52-.16.91-.22,1.31-.21,1.5.3,3.29.09,4.82-.28.67-1.66,1.49-1.76,2.13s-.1,3.31-.01,3.99c.02.14.03.19.1.32.16.28,1.86,1.9,2.21,2.2.26.23,1.26,1.05,1.53,1.1,1.08.11,2.2-.08,3.25-.11.74-.02,1.97.16,2.58.07.39-.06.74-.38,1.05-.64.88-.73,1.74-1.85,2.57-2.69.14-.15.37-.23.48-.36.54-.63.23-2.2.31-3,.86.27.67-1.19.13-1.35s-.92.13-.98.66c-.07.62.15.39.31.64.18.29.18,2.4.04,2.75l-3.88,3.79-5.82-.03c-1.43-.73-2.19-2.23-3.45-3.17.11-1.2-.22-2.93,0-4.06.15-.71,1.29-1.29,1.53-1.94.27-.76.03-2.31.29-2.97.35-.87,1.88-1.91,2.57-2.58.54-.52,2.66-2.87,3.21-2.89s1.17,1,1.52,1.37c-.77,0-1.25-.13-1.89.37-.72.55-1.02,1.5-2.11,1.37l-.19,1.2c1.03.41,1.21-.19,1.35-1.07.56-.32.78-1,1.37-1.29.66-.32,1.2.02,1.89-.1.24.11.87,1.04,1.01,1.31.26.5.54,1.76.78,2.06.22.28.66.23.91.47-.22.76.22,1.6,0,2.32-.12.37-1.54,1.57-1.9,1.99-.18.21-.27.5-.47.63.03-.6-.33-1.47.05-2,.11-.15.33-.18.4-.34.55-1.28-1.56-1.42-1.38-.05.05.35.37.32.46.49.14.29.04,1.71.05,2.16,0,.25.12.49.12.73,0,.46-.2,1.05-.14,1.55l-2.57,2.79c-.33.17-2.29.19-2.67.07-.2-.06-1.88-1.72-1.96-1.93-.17-.42-.22-2.55-.09-2.97.06-.19,1.05-1.13,1.22-1.21.19-.1.31.18.57.17,1-.04.91-1.8-.26-1.43-.83.26-.26.89-.44,1.2-.06.1-.97.74-1.14.91-.11.11-.21.22-.26.37v3.05c.6.38,1.67,2.04,2.24,2.18.35.09,1.99.08,2.39.03.21-.02.29-.05.47-.16.9-.57,1.81-2.09,2.68-2.79l.28-2.66c1.02-.67,1.77-1.66,2.66-2.49l.16-2.21c.57,0,1.16.42,1.58.79,1.26,1.1,2.61,3.32,2.92,4.97.08.46.03,1.22.15,1.63.07.23.45.39.55.61.18.37.26,2.49.11,2.83l-3.04,2.85-.9.1.11.63c.14.06.1-.43.31-.21.02.02-.18.59.16.53.12-.02.53-.27.59-.36.1-.14-.06-.29.08-.53.35-.59,1.91-1.8,2.48-2.36.14-.13.68-.66.68-.79v-2.1s-.2-.14-.05-.16h.15c.17.41.55.74.82,1.12,1.05,1.49,1.76,3.3,1.91,5.13.04.43-.13,1.39-.06,1.63s1.05,1.16,1.31,1.54c1.25,1.85,1.87,4.19,1.92,6.39,0,.31-.23,2.05-.48,2.05-.77-.38-.92-1.04-1.31-1.63-.14-.21-.44-.36-.57-.59-.15-.26.03-1.88-.07-2.45-.21-1.28-1.54-2.02-2.32-2.94-.28-.2-.56-.11-.87-.07l-.12.32c-1.04-.77-1.37.35-2.16.88-.43.29-1.06.62-1.6.46-.15-.04-.45-.4-.65-.4h-1.63c-.02.15.19.15.29.18,1.39.34,2.46.73,3.88.1.2-.09.7-.82.88-.96.72-.58,1.14.34,1.52-.48l2.31,2.42c.24.85-.19,2.56.18,3.29.04.07.89,1.03,1.03,1.18.27.29.69.55,1,.89,2.47,2.78,1.27,7.23-.88,9.85.03,1.15.24,2.46-.07,3.61-.14.53-.52,1.07-.73,1.58-.11.27-.06.55-.13.73-.21.57-1.45,2.12-1.92,2.58s-1.72,1.11-1.95,1.42c-.36.48-.53,1.77-.79,2.37-.15.36-.52,1.01-.72,1.39-1.07,2-2.77,3.54-4.96,4.39-.49.19-1.76.38-2.03.57-.08.06-.55,1.08-.76,1.36-1.99,2.58-5.65,3.67-8.8,3.08-3.97,3.51-11.25,2.84-11.84-3.35-.44-4.57.17-9.91,0-14.6-.01-.3-.15-.58-.11-.89.18.01.1.32.19.5.54,1.09,1.95,1.53,2.38,2.35.72,1.39.13,2.88.4,4.22.18.88,2.23,2.18,2.99,2.68l4.48.15,1.97,1.73-.02,2.37c-.53.55-1.48,1.98-2.24,2.07-.45.05-2.12.07-2.52,0-.36-.07-.51-.64-1.02-.58-.88.11-.78,1.34.06,1.31.41-.01.59-.36.85-.41.73-.14,2.54.2,3.1-.06.67-.74,2.08-1.56,2.21-2.62.06-.52.05-1.96-.27-2.36-.78-.44-1.38-1.68-2.31-1.79-1.27-.15-2.88.05-4.19-.12-.44-.1-2.62-1.83-2.7-2.24-.25-1.35.18-3.12-.48-4.36-.49-.93-1.85-1.4-2.11-2.41-.08-.31-.13-1.12-.39-1.35-.08-.07-.29,0-.29-.02v-3.68c.5.37,1.48,1.12,2.07,1.24.79.16,1.89-.08,2.71.02.7.08,2.27,1.86,2.94,2.42.22.18.52.46.79.53-.82-.82-1.59-1.77-2.47-2.52-.39-.34-.73-.67-1.26-.73-1.44-.17-2.16.34-3.56-.54-.34-.22-.62-.56-.92-.76-.11-.07-.3-.04-.3-.06v-4.52l.11.42.3-.12.02-.61h-.42s0-10.09,0-10.09c0-.01.18,0,.26-.1.95-1.09,1.05-.69,2.09-1.28.29-.16.82-.79,1.02-.88.27-.12.47.09.73.01,1.02-.3.42-1.83-.61-1.35-.48.22-.24.74-.39,1.08-.42.95-2.4,1.06-3.05,1.89l-.05-1.16.31.11-.1.2c.65-.13,1.57-.82,1.68-1.53.09-.57-.12-1.48.03-1.97.09-.29,1.4-1.37,1.61-1.96.45-1.26-.04-3.4.18-4.77l1.74-1.94c.13-.74-.02-2.25.24-2.89.04-.11.24-.17.34-.31,1.23-1.73-2.91-1.26-.77.24l-.1.35c0,.06.19.05.21.13.05.19.03,2.09-.02,2.27-.14.47-1.77,1.54-2.03,2.07l-.1,4.74c-.39.87-1.62,1.23-1.74,2.25-.18,1.48.45,2.24-1.47,2.89v-3.78s.4-.23.52-.37c.22-.26.74-.86.89-1.11.43-.71.29-3.78.27-4.78,0-.39-.16-.69-.1-1.15.05-.39.64-.72.93-1.06,1.23-1.44.57-2.76.76-4.5,1.16-1.43,2.8-2.39,4.03-3.75.44-.49,1.22-1.39,1.22-2.05,0-.25-.11-.48-.12-.73-.02-1.15.2-3.39-.04-4.37-.2-.84-1.84-1.62-1.53-2.73h-.63c-.46.47,1.52,2.17,1.87,2.49l.12,5.76c-.04.23-.26.46-.41.64-1.24,1.45-3.24,2.8-4.51,4.21-.85.95-.24,2.75-.45,3.96l-1.55,2.02-.02,5.55c-.31.44-.75.79-1.24,1.02V5.94ZM41.74,14.29c.72-.04.8-.89,1.22-1.35,1.2-1.33,3.03-2.6,4.14-3.95.15-.18.37-.41.41-.64.08-.41.06-3.27-.04-3.63-.32-.51-2.36-2.92-2.76-3.03-.14-.04-.32.02-.35.14-.1.38,1.38,1.36,1.69,1.68.39.4.74.98,1.1,1.42l.03,3.3-5.02,5.07-.42,1ZM44.55,3.7c-.52-.51-2.06.49-1.76.82l.69-.11.05.95.52-1.42c.42-.21.4.1.64.27l-.13-.5ZM50.29,3.75c-.08-.05.03-.22-.14-.18-.09.48.09.97.11,1.41.03.8-.11,1.88,0,2.63.13.8,1.3,1.6,1.44,2.13.1.41.09,2.64.03,3.13-.08.65-1.26,1.41-1.45,2.33-.28,1.39.34,5.3-.14,6.27-.05.1-.77,1.03-.83,1.07-.26.15-.69-.07-.92.34-.8,1.39,1.97,1.58,1.08-.18l.99-1.22c.21-1.9-.22-4.19.05-6.05.19-1.3,1.35-1.39,1.45-2.23.13-1.1-.1-2.44,0-3.57l-1.34-1.92v-3.86c-.04-.1-.21-.03-.3-.09ZM43.1,9.25c.22-.5.86.17,1.03-.39.19-.63-.33-.7-.38-.94-.08-.41.37-1.5.18-2.04l-.5.92c-.06.24-.03.89-.15,1.06-.18.24-1.08.28-.54,1.17.08.13.46.53.57.22h-.21ZM59.95,13.27c.12-.2.82-.32.34-.96-.67-.91-1.9.19-1.21.99l.43-.05.11,4.31c.24-.09.29-.46.31-.68.06-.6-.12-3.37.02-3.61ZM48.6,14.01c.05-.06.21-.09.29-.18.66-.84-.69-1.48-1.16-.75-.37.56.15.73.22,1.06l.21,4.57.21-1.95c.03-.64-.13-2.3.24-2.76ZM58.17,20c.09-.08.4-.14.59-.3.58-.48,1.11-1.14,1.06-1.94l-1.41,1.8c-.5.32-.57-.32-1.16-.22-.86.15-.71,1.59.28,1.35.46-.11.48-.54.64-.69ZM51.31,24.07c.38,1.02-.65,1.37-1.32,1.89-1.44-.02-2.76.31-3.79-.94-.36-.43-.35-1.78-.21-2.32.18-.68,1.76-1.45,1.95-2.31-.76.75-1.74,1.36-2.29,2.28v2.37s1.52,1.21,1.52,1.21l2.92.02c.42-.08,1.17-1,1.42-1.1.33-.12,1.16.39,1.16-.69-.28.21-.36.65-.79.32l.16-.69.32.11c.21.1.17-.08.05-.16-.49-.34-.69.19-1.1,0ZM65.22,30.24l-1.49-1.61v-1.85s2.92-2.97,2.92-2.97c.17-.09.77.49,1.22-.04.61-.72-.46-1.61-1.12-.91-.55,1.64-2.28,2.41-3.28,3.76-.08.78-.29,2.09.23,2.73.13.15,1.47,1.37,1.57,1.4.28.09,1.64.1,1.95.04.21-.04.42-.23.58-.36.51-.41,1.71-1.92,2.1-2.1.42-.2.55.25.87.24.59-.03,1.02-.82.49-1.24,0,.17.09,1.15-.32.9l-.31-.63.42-.37c-.94-.31-1.08.47-1.52.95-.72.78-1.67,1.43-2.37,2.26-.6.06-1.47.22-1.96-.19ZM47.31,38.05l.06-1.79,2.37-2.15c.86-.27,3.2.21,3.84-.16.09-.05.45-.46.5-.56l.08-6.33c.07-.37.68-.25.53-1.05-.1-.51-1.34-.66-1.34.33,0,.39.29.37.4.53.16.25-.03.86,0,1.24.08,1.42.36,2.83.22,4.31-.05.48-.4,1.21-.9,1.31-.96.18-3.01-.29-3.78.21-.69.45-1.63,1.73-2.35,2.28-.08.27.1,1.6.4,1.82ZM60.34,27.96c.1-.45.28-1.01-.38-1.05-.59-.03-.65.53-.93.84-.72.8-2.86,2.29-3,3.3s.19,2.51,0,3.47c-.03.13-.61.87-.73.96-.66.49-3.16-.22-4.23.4-.33.19-1.56,1.28-1.88,1.59-.65.64-.72.9-.63,1.84l.21.31.22-1.51c.34-.36.67-.73,1.04-1.07.19-.17,1.13-.99,1.27-1.05.42-.19,2.13.09,2.79.06.38-.02.76-.17,1.15-.11,2.04-1.04.89-3.52,1.27-5.36.38-.49.94-.85,1.37-1.26.53-.51,1.16-1.61,2.04-1.37l-.1-.84.53.16c.02.12-.54.72,0,.68ZM51.2,29.96c-1.06-.46-.91.38-1.26.68-.19.15-.89.29-1.28.59-.54.41-1.99,1.99-2.5,2.57-.64.73-1.13,1.59-1.81,2.29-.31,1.25,1.62,1.11,1.38.05-.05-.2-.29-.37-.28-.53.02-.22.59-1.11.77-1.33.44-.55,2.37-2.52,2.9-2.88.16-.11.86-.44,1.02-.47.28-.04.34.3.76.14.28-.1.03-.13-.03-.19-.23-.21-.71-.49-.16-.74.17-.08.49,0,.5-.18ZM61.06,30.09c-.22-.39-1.46-.31-1.44.34,0,.25.21.4.14.68-.08.31-1.32,1.26-1.48,1.68l-.03,1.99.3.12.16-2.1,2.07-1.98c.27.26.38-.55.27-.74ZM63.39,32.69c-.25-.03-.42.03-.63.16-.25.16-1.5,1.33-1.68,1.58-.35.46-.47.93-.21,1.47l.74.16c.08-.33-.34-.21-.4-.49-.03-.11.09-.65.15-.76.24-.49,1.66-1.59,2.04-2.11ZM42.76,34.4c-.31-.25-.91-.13-1.01.26-.06.24.25.54.29.82.03.2.08,1.93.06,2.06-.06.28-.39.39-.58.56l.21.1-.42.58c1.8-.77.85-2.26,1.15-3.5.03-.12.35-.13.41-.36l-.12-.53ZM72.01,34.38c-.73-.25-.66-.13-1.05.26-.37.37-.22.33-.46.69-.66.97-1.22.64-2.11.62-.58-.01-3.62.1-3.84-.05s-.21-.68-.85-.22c-.77.56.14,1.32.72,1.03.2-.1.17-.33.39-.35,1.46-.18,3.56.26,4.94,0,.52-.1,1.01-.96,1.29-1.03.26-.06.51.21.77.19-.09-.26.1-.37-.21-.48l.08-.24-.19-.06.52-.37ZM58.24,35.22l-.05.95-2.26,2.05c-1.18.3-2.8-.5-3.83.27-.21.16-1.31,1.26-1.39,1.45-.17.37-.25,1.61.03,1.92.13.14.21.07.25-.07.11-.44-.1-1,.09-1.48s1.22-1.05,1.44-1.61c.49-.35,2.97.15,3.67-.22.43-.49,1.99-1.58,2.22-2.09.1-.23.16-1.03-.15-1.15ZM67.71,38.58c1.23.16,2.38.11,3.6-.09.18.04,1.34,1.09,1.4,1.25.1.25-.24.53.21.95.75.69,1.88-.86.92-1.14-.32-.09-.69.15-.87.04-.09-.06-.14-.27-.26-.37-.52-.44-.99-1.02-1.69-1.04-.64-.01-2.11.01-2.73.09-.16.02-.53.13-.57.32ZM63.87,38.48c.55-.06,1.17.04,1.73,0,.02-.19-.24-.1-.37-.11-.6-.02-1.92-.15-2.39.03-.77.3-1.95,1.89-2.35,1.96-.59-.03-1.42.09-1.97-.13-.32-.13-.51-.66-.95-.59-.9.14-.66,1.41.19,1.36.4-.02.42-.37.74-.43.48-.09,1.04.15,1.58.1,1.67-.16,1.96-2.02,3.78-2.21ZM45.63,39.21c-.45-.58-1.27.16-1.76.39l-2.08,2.03c-.12.26-.09,2.65-.06,3.1.02.28.1,1.07.21,1.26.07.12,1.82,1.65,2.06,1.83,1.2.89,2.55.04,3.41.59.62.4,1.89,1.68,2.48,2.25,1.12,1.09,2.13,2.38,3.31,3.42l6.25.05c.31.06.67,1.05,1.19.72.03-.02.3-.55.31-.59.17-.63-.28-.88-.83-.7-1.58.5-3.49.17-5.2.25-.42.02-1.03.28-1.38.14-1.48-1.46-2.87-3.04-4.39-4.45-.32-.3-1.4-1.34-1.68-1.47-.87-.41-2.06-.05-2.97-.29-.44-.6-1.93-1.53-2.24-2.07-.07-.13-.09-.17-.1-.32-.12-.91,0-2.19-.08-3.14l1.24-1.44c-.44,0-.62.77-1.05.68.3-.4.77-.68,1.1-1,.68-.65,1.05-1.43,2.26-1.26ZM74.22,44.26c-.25-.38-.76-.24-1.15-.48-1.07-.64-2.36-2.39-3.38-3.25-.59-.5-2.1-.03-2.88.04-.72.07-1.78-.02-2.47.16-.95.25-2.23,2.14-2.99,2.79-.29.23-.62,0-.95-.01-1.7-.03-3.41.07-5.11-.04-.71-.28-.47-1.25-.74-1.68-.12-.2-.69-.46-.78-.7-.07-.17.08-.34.04-.55-.16-.74-1.23-.9-1.35-.02s.61.65,1.09.9c.93.49.88,1.96,1.46,2.22,2.16.07,4.38.38,6.52.05,1.11-.81,2.04-2.77,3.49-2.92,1.28-.13,2.69,0,3.99-.21.38.06,1.98,1.67,2.38,2.04.42.4.81,1.07,1.41,1.33.41.18.98.08,1.43.31ZM53.04,45.83c-2.01.24-4.46-.18-6.52,0-.4-.34-1.65-1.12-1.79-1.57-.08-.27-.1-1.45,0-1.69.08-.18.55-.42.74-.63.38-.41.68-.93,1.1-1.32.02-.08-.1-.07-.16-.05-.15.03-1.8,1.62-1.94,1.84-.24.36-.32,1.58-.16,1.94.07.16,1.62,1.48,1.84,1.63.17.11.26.14.47.16,1.24.15,3.54.06,4.84,0,.53-.03,1.1-.18,1.66-.13l.18-.3c-.13-.04-.22.1-.26.1ZM52.25,43.1c.06-1.47-1.72-.67-1.26.42.59.13.31-.65.65-.77.1-.03.44,0,.48.05.07.09-.08.33.12.3ZM48.23,43.02c-.55.15-.84.81-.28,1.18,1.26.83,1.88-1.6.28-1.18ZM72.1,46.07c-.29-.29-.74.03-1.02-.08-.63-.23-2.09-1.91-2.9-2.36-.17-.1-.33-.2-.53-.21l-2.44.18-3.15,2.74-3.42-.08c-.26-.69-1.35-.78-1.35.05,0,1.14,1.37.29,1.96.26.69-.04,1.53.17,2.31.11.25-.02.69-.05.91-.14.58-.23,2.19-2.24,2.87-2.71.25-.18.32-.19.63-.22.33-.03,1.72-.04,1.95.06l3.02,2.7c0,.47.04.75.56.88.73.17.97-.83.6-1.19ZM76.21,43.85c-.63-.25-1.43.02-1.24.82.43.15,1.29.32,1.35-.3-.1-.09-.74.19-.63-.21h.52s0-.31,0-.31ZM66.56,46.76c-.05-.09.18-.81-.49-.93-1.3-.22-.99,1.96.24,1.18,1.46.62,2.9,3.32,4.5,3.45.34.03,1.1-.13,1.25-.09.31.08.36.44,1.18.41,1.19-.04.58-1.78-.36-1.21-.22.13-.3.41-.59.46s-1.81.04-2.04-.05c-.49-.2-2.3-2.13-2.84-2.63-.14-.13-.8-.55-.83-.6ZM54.04,46.78l.16,1.57c1.03.9,1.58,1.89,3.04,2s3.2-.05,4.72-.08l5.39,5.22c.34.22,1.64.14,2.15.27.56.13.8.93,1.54.61.65-.28.29-1.08-.26-1.17-.33-.05-.47.28-.71.29-.64.03-1.73-.35-2.48-.25-1.79-1.75-3.49-3.61-5.46-5.16-1.62-.23-3.52.15-5.11-.04-.49-.06-2.45-1.61-2.55-2.07-.08-.38.14-1.11-.44-1.19ZM49.86,48.07c-.11.12-.14.42-.22.57.25.79.9.06,1.38.36.89.73,1.72,1.62,2.59,2.35.55.46,1.09,1.04,1.84,1.11,1.35.12,4.68-.3,5.69.2.62.31,1.63,1.54,2.15,2.06.59.58,3.09,2.88,3.31,3.42.08.21.04.43.1.63.22.67,1.39.7,1.33-.27-.04-.69-.66-.47-1.02-.68-1.28-.72-3.47-3.57-4.78-4.69-.41-.35-1.1-.94-1.63-1-1.74-.21-3.82.24-5.58-.09-1.14-1.11-2.61-2.1-3.73-3.21-.4-.39-.82-1.44-1.44-.76ZM57.82,48.57h5.73c.1,0,.46.17.66.13,1.04,1.08,2.15,2.09,3.24,3.12,1.72,1.63,1.45,1.29,3.78,1.48,1.23.1,1.65.38,2.63,1.05l-.73-.95c-1.06-.71-2.32-.27-3.46-.43-1.28-.17-3.63-3.12-4.79-4.04-1.06-.84-3.31-.62-4.68-.58-.22,0-.42.1-.63.11-.45.02-.91-.02-1.37,0-.13,0-.39-.08-.37.11ZM59.29,69.28l.37-.1c-.02-.88.31-2.57-.21-3.26-.48-.65-1.48-1.08-1.69-1.89-.23-.89.11-2.21-.05-3.1-.07-.36-1.4-1.78-1.73-1.84l-6.46-.06-1.24-1.28-.08-2.65c-.36-.45-1.36-1.7-1.89-1.79-.48-.08-1.12.08-1.57,0-.34-.07-.69-.63-1.29-.18-.49.83.55,1.67,1.18.92.1-.12.11-.39.23-.42.18-.04,1.13-.02,1.34.01.39.06,1.59,1.24,1.64,1.62.09.71-.16,1.83.04,2.48.08.25,1.29,1.42,1.53,1.51l6.35.17c.4.06,1.46,1.12,1.52,1.52.2,1.27-.39,2.92.53,3.99.44.52,1.32.94,1.55,1.6.28.8,0,1.92-.08,2.76ZM49.73,53.67c.1.34,0,1.73,0,2.21,0,.2.92,1.06,1.21,1.1,1.89.2,4.27-.25,6.1,0,.6.08,1.79,1.4,2.23,1.87l.1,4.1,1.99,2,2.5.02,1.18-1.03,3.01-.02.18-.32c-.95.01-2.35-.31-3.23.08-.4.18-.88.86-1.26.95-.35.08-1.91.07-2.21-.06-.22-.09-1.68-1.59-1.76-1.82l-.08-3.92-2.19-2.12h-6.52c-1.31-.61-.65-1.75-.86-2.82-.05-.23-.62-.75-.82-.65.07.12.4.34.42.42ZM64.97,60.76c-.16-.48-.51-.18-.73-.26-.14-.05-2.22-1.79-2.36-1.95-.3-.37-.23-.96-.93-.81s-.63,1.29.09,1.35c.25.02.39-.18.54-.19.23-.02,2.15,1.68,2.4,1.98.12.15.12.37.22.51.55.75,2.06.05,1.25-.73l-.26.16.21.37c-.32.02-.84-.01-.84-.42h.42ZM56.49,67.04c-.18-.15-.98-1.23-1.04-1.43-.14-.47,0-1.13-.05-1.63-.13-1.39-1.61-2.24-2.52-3.15l-4.65-.08c-.2-.05-1.75-1.5-1.82-1.66-.09-.23.25-.57-.2-.84-.49-.29-1.05.01-1.02.58.04.7.71.35,1.09.57.1.06.19.31.33.43.47.41.94.82,1.42,1.21.98.27,4.1-.25,4.79.15.13.07,2.03,1.97,2.09,2.11.32.7-.25,1.96.39,2.98.17.27.76.68.81.88.07.28-.23.67-.04.98l.51.1.17-.28-.2-.29.31-.43c-.08-.15-.3-.12-.38-.19ZM44.68,71.49v-1.73c0-.35-1.56-1.43-1.73-1.83-.2-.52-.25-2.53-.17-3.12.06-.48.66-.63.35-1.28-.34-.7-1.67.1-1.15.79.06.08.23.1.29.18.22.3.05,2.75.25,3.43.24.81,1.51,1.29,1.69,1.68.25.56-.28,1.53.47,1.89ZM49.29,66.32c-.11.1-2.81.04-3.07-.1-.35-.18-.36-.61-.96-.2-.76.51-.05,1.37.69,1,.17-.08.22-.42.38-.46.09-.02.34.09.51.09.63,0,1.76-.11,2.32,0,.4.08.54.7,1.21.25.71-.48.19-1.43-.65-1.18-.36.11-.34.54-.41.59ZM55.28,70.53c1.06-1.73-1.29-1.6-.99-.51.11.4.62.51.99.51ZM45.94,73.38c.1-.45-.26-.56-.47-.85s-.32-.67-.69-.83c.17.64.62,1.28,1.15,1.68Z"/>
      <path d="M45.81,15.68c.6-.17.57.57.08.62s-.44-.51-.08-.62Z"/>
      <path d="M47.41,69.49l-.31-.1.18.48-.23.26c-.81-.37.15-1.4.37-.63Z"/>
      <path d="M44.33,30.08c.19-.05.34-.03.45.14-.17,1.01-1.25.08-.45-.14Z"/>
      <path d="M33.06.84c2.52.27,4.38,2.02,4.57,4.57.25,3.4-.02,7.36,0,10.83.01,2.31.07,4.7.07,7.02,0,.03-.03.49-.17.33-.21-.57-.9-1.1-1.14-1.59s.06-1.19-.72-1.28c-.59-.07-.87.72-.5,1.13.19.21.53.17.79.36.57.42,1.6,2.23,1.67,2.95v12.38c-.61.57-1.77.28-2.15,1.24-.08.2-.14,1.38-.17,1.73-.06.88-.02,1.21-.21,2.11-.09.44.48-.36.52-.64.13-.8-.41-3.31.7-3.42.2-.02.08.19.3.22.3.04.72.01,1.01-.11v6.89s-.32.62-.32.62l.32-.05v9.51c-.1.51-1.47.63-1.68,1.32.73.18,1-.55,1.68-.52-.06.38.08.96,0,1.3-.02.08-.21.07-.21.13-.02.43.57,1.78,0,2.09-.55.16-1.06.41-1.59.62-.12.05-.36.02-.29.23.02.07.31.12.39.12.76,0,.98-.64,1.72-.7v1.3c-.3.04-.37.3-.5.38-.75.48-1.18.42-1.29,1.52-.13,1.26.12,2.69-.02,3.97-.39.76-1.58,1.32-1.9,2.1-.21.52-.03,1.53-.29,2.13.09.15.2-.14.22-.2.18-.53.03-.97.11-1.47.1-.63,1.84-1.6,2.17-2.46.45-1.17-.1-3.34.14-4.59.06-.29.39-.45.65-.51.52-.12.45.19.72.5-.29,3.64,1.14,8.4-2.75,10.51s-10.15.25-12.68-3.5c-3.83.31-8.06-1.39-9.7-5.01,0-.24,1.05-.93,1.27-1.14.25-.25,1.49-1.67,1.58-1.89s.22-2.01.21-2.32c0-.23-.16-.41-.21-.64s.15-.66-.22-.57v3.21c-.45.61-.99,1.3-1.52,1.84-.35.36-.79.96-1.34.82-.74-.45-1.47-.57-2.22-1.05-2.43-1.54-3.58-4.24-3.8-7.02-.83-.64-1.61-1.32-2.15-2.21,2.4.3,4.84.24,7.26.16.43-.26.83-.57,1.21-.9,2.19-1.91,4.58-4.48,6.68-6.57.94-.94,1.76-2.03,2.84-2.84l4.99-.05,2.72,2.02c-.33,1.45-.04,2.95-.06,4.42-.84,1.02-1.89,1.83-2.82,2.75-.26.26-.49.61-.78.9-.41.41-1.48,1.17-1.74,1.62-.07.13-.19.36-.05.48l5.56-5.47c.33-1.49.15-3.18.11-4.72-.17-.51-2.25-2.26-2.78-2.38l-5.08.08c-.24.05-2.24,1.87-2.4,2.13-.15.24.23.32-.42.52l-7.88,7.68c-1.81-.04-3.96.24-5.73.06-.3-.03-1.47-.27-1.74-.36-.81-.28-1.1-2.51-1.13-3.26-.02-.4.19-.81.04-1.32-.06-.2-.85-1.08-1.06-1.46-1.4-2.5-1.33-5.56-.36-8.2.19.01.07.33.16.52.52,1.16,1,.68,1.89.85.58.11,2.68,3.26,3.42,3.73.58.27,2.62-.09,3.41.06.25.05.36.35.53.31.35-.08-.13-.69.21-.84l.68.27-.21-.43c-.52-.29-.94.29-1.32.36-.41.08-2.27.09-2.73.06-.1,0-.19-.02-.28-.07-.45-.38-.88-.81-1.29-1.24-.47-.49-1.63-2.1-2.05-2.36-.46-.29-1.12-.13-1.53-.37-.14-.08-.63-.79-.65-.92-.04-.26.31-.55.3-.93-.02-.5-.5-1.33-.32-1.95.18.05.18.27.36.42.3.24.55.31.93.3.1,0,.66-.07.7-.2-.9.15-1.23-.21-1.63-.94-.48-.89-.27-1.59-.02-2.55.42-1.63,1.37-3.21,2.47-4.47-.2-3.05.53-6.21,2.83-8.32.4.11.82.05,1.22.11.73.12.67.18,1.49.18.68,0,2.02-.14,2.53.22.97.67,2.35,2.42,3.31,3.31,1.01.95,2.15,1.79,3.16,2.73.32.3,1.22,1.1,1.27,1.47.12.91-.2,1.87.15,2.79.17.45,1.39,1.75,1.84,1.85h8.1c.43-.07.82-.45,1.15-.74.3-.25,1.65-1.54,1.79-1.78.29-.49-.19-.63-.23-1.06s.18-.91.1-1.46c-.27-1.96-3.03-2.26-3.33-3.71-.08-.37-.11-1.32-.13-1.76-.06-1.22.07-2.45-.02-3.66-.47-.49-.9-.98-1.34-1.5-.12-.14-.31-.2-.39-.29-.6-.71-.04-3.65-.13-4.65-.3-1.02.21-2-.48-2.89-.48-.62-2.43-2.4-3.11-2.67-.24-.1-.48-.06-.73-.06l.31-.21h-2.89c-.15,0-.69.34-.87.39-.24.06-.66-.08-.76.13.33-.08.69.1.99.1.32,0,.7-.19,1.06-.2.58-.02,2.13-.09,2.61.03.21.05,1.61,1.16,1.87,1.39.55.49.98,1.13,1.56,1.6-.13,1.27-.12,2.59-.09,3.87.02.79.02,1.61.05,2.39.04,1.26,1.51,1.7,2.15,2.67,0,.21-.09.4-.09.61-.02,1.35-.21,4.14.33,5.25.64,1.3,2.97,1.87,3.04,3.27.02.49-.31,1.63.11,2.03.02.02.23-.1.3.08.03.12-.36.57-.47.69-.32.33-1.89,1.68-2.23,1.87-.28.16-1.13,0-1.57,0-1.51.06-3,.09-4.51.11-.52,0-1.73.08-2.13-.08-.17-.07-1.5-1.51-1.58-1.68-.32-.72-.01-1.92-.14-2.7-.14-.86-3.22-3.26-3.99-4-1.36-1.3-2.62-2.71-4.04-3.95-.48-.28-2.51,0-3.26-.11-.53-.08-.77-.54-1.32-.52.36-.41.28-.92.43-1.41.93-3.11,3.18-5.67,6.35-6.58,1.35-4.03,4.98-7.11,9.28-7.44,1.14-1.15,2.39-2.4,4.02-2.76v1.63c0,.69,2.21,2.18,2.48,2.79.08.19-.05.36-.03.55.02.28.55.52.76.5.04,0,.28-.44.55-.42.04-.97-.55-.71-1.06-1.06-.29-.2-1.67-1.59-1.89-1.89-.5-.68-.21-1.64-.11-2.42.27-.14,1.32-.53,1.54-.37.14.19.09.44.18.66.23.55.35.58.29,1.29l2.9,2.68.1,1.64.3-.12c0-.47.11-1.1-.06-1.53-.19-.47-1.99-1.6-2.43-2.3-.3-.48-.02-.82-.46-1.28l-.19.09c.2-.49,0-.87,0-1.37.69.05,1.48-.07,2.16,0ZM15.4,26.91c-.54-.09-1.28.07-1.84,0l1.87.29c.36.14,2.54,2.31,2.63,2.62.14.46-.07,1.25.03,1.76.07.4,2.08,2.36,2.52,2.74.3.27.99.9,1.34.97h9.94c.75-.93,3.54-2.98,3.73-4.05.06-.36.12-1.27.13-1.66.02-1.04-.16-2.08-.13-3.13-.16-.24-.34-.57-.54-.78-.69-.76-2.25-1.71-2.8-2.51-.28-.41-.32-.98-.05-1.41.47-.75,1.8-1.63,2.41-2.32.21-.23,1.03-1.41,1.08-1.65.4-1.94-.54-4.38.66-6.28-.14-1.75.05-3.75-.11-5.47-.13-1.42-1.15-1.74-2-2.73-.61-.71-.93-1.31-1-2.26h-.47c.03.57.14,1.24.42,1.74.43.78,1.81,1.56,2.38,2.25.1.13.17.26.21.42,0,.72-.11,1.44-.07,2.16.11,1.66.66,3.2.08,4.91-.12.36-.42.61-.49,1.09-.18,1.35.16,2.98-.06,4.36-.27.35-.55.72-.85,1.05-.51.58-2.79,2.57-2.89,3.1-.09.45-.03.94.27,1.3.77.9,2.22,1.81,3.09,2.69.14.14.3.27.37.47-.03,1.33.2,2.98.05,4.27-.13,1.11-2.87,3.23-3.65,4.13h-9.84l-3.22-3.2c-.28-.45,0-1.33-.14-1.86-.16-.61-2.41-2.91-3.08-3.02ZM31.64,17.87v-1.63c0-.26-.6-.87-.6-.95,0-.07.17-.3.18-.52.12-1.92-.05-3.91-.06-5.84-.16-.36-1.19-1.04-1.46-1.38-.3-.37-.36-1.01-.71-1.5s-.96-.89-1.33-1.4c-.44-.6-.75-1.41-.86-2.14-.61.13-.15,1.1-.21,1.63-.04.34-.2.52-.22.94-.02.51.2,1.98.44,2.41s1.65,1.39,2.04,1.95c.1.14.17.24.21.42.22.92.03,2.99.04,4.06,0,.23.12.45.12.63,0,.29-.36.6-.22.99l.32-.18v-.66s1.33.77,1.33.77c.19.33.56.59.64.99.19.93-.51,1.33.51,2.01.13.09.3.11.46.12l-.31.11c.02.28.49.2.53.03-.38-1.2.81-1.14,1.23-2.01l.05-4.26c.57-.99,2.11-1.56,2.18-2.81l-2.55,2.66c-.08.14-.07.29-.08.44-.09.96.21,3.02-.02,3.77-.08.26-1.32,1.67-1.66,1.34ZM34.67,8.33c-.41-.42-.88-.27-1.34-.02-.04.05.31.51.36.63.06.14-.21.45.44.43.45-.02.92-.65.55-1.03ZM26.16,19.63c-.31.15-1.5-.77-1.6-1.03-.3-.71.45-2.52.28-3.39.08-.26.79-.73.97-1.02.23-.36.23-2.48.16-2.98-.09-.59-1.99-2.48-2.57-2.58-.52-.09-3.24-.07-3.71.07-.61.18-.98.89-1.7.82l-.09.2c.38.35.08.6-.17.91-.14.04-.24-.13-.29-.24-.09-.21,0-.56-.18-.6-.11.5.09,1.09.69,1.05.04,0,.62-.31.65-.34.12-.11.14-.62.41-.91.21-.23.62-.4.88-.59l3.41.07c.2.02.36.1.53.2.25.14,1.43,1.19,1.63,1.42.34.39.1.55.1.94,0,.76.01,1.53,0,2.29-.39.36-1.03.83-1.19,1.35-.07.24-.21,2.7-.17,2.97.08.53.9,1.46,1.37,1.68.22.1.5.07.76.19.11.05.74.49.79.57.31.53.09,2.52.25,3.22.08.34.68.74.6,1.05-.07.38-.61.23-.71.06-.06-.11.1-.28.04-.41-.02-.03-.43-.33-.51-.42-.4-.49-.61-.98-1.32-1.2l-3.43-.14-.15.2c.4,0,.84.3,1.22.31.23,0,.46-.12.73-.11.55.03,1.16.16,1.74.16.62.2.81,1.39.73,1.95l.63-.31c.1.6,1.16.55,1.37.05l-.21-.47.21-.05c-1.23-.99-.17-2.83-.95-4.1.41-.15.2-.28.28-.47.06-.16.26-.26.23-.46-.03-.27-.51-.59-.77-.59-.4,0-.74.62-.92.7ZM12.2,14.61c.5-.02,1.03-.17,1.53-.21.78-.07,2.61.03,3.21-.15.38-.12,1.08-1.01,1.67-1.17.51-.13,1.15.07,1.58-.11.57-.23,1.54-1.52,1.9-1.68.27-.12.53.2.98-.06.79-.45-.08-1.84-.94-1.15-.37.3-.15.75-.36,1.11-.08.15-1.43,1.43-1.58,1.47-.57.18-1.28-.06-1.96.15s-.86.72-1.31,1c-.47.3-2.34.34-2.97.28l-1.75.52ZM23.55,22.71v-3.21c0-.6-2.29-2.17-2.55-2.81-.2-.49-.02-1.32-.11-1.89-.04-.27-.19-.91-.5-.97.08.52.19,1.16.22,1.68.02.29-.12.54-.11.83.05,1.15,1.96,2.06,2.54,3.04l.19,3.23.21-.21.11.31ZM18.26,17.06l-1.2-1.06-3.23-.02c-.5.1-1.76,1.92-2.27,2.15-.34.16-.46-.12-.78-.17-1.06-.14-1.19,1.08-.38,1.33.73.22.87-.53,1.21-.91.61-.67,1.5-1.28,2.13-1.97.23-.07,3.08-.07,3.32,0,.2.06.91.69.97.92.15.49-.02,1.17.07,1.72.26,1.51,2.28,1.8,2.53,3.31l.81.45c-.38-.56-.45-1.24-.95-1.73-.22-.21-.52-.31-.74-.53-.4-.38-.74-.8-1.1-1.21l.16.53-.3-.12c-.14-.72.22-2.11-.26-2.68ZM29.79,29.47c-.25.32-.45.87-.95.99-.31.08-1.62.07-1.97.03-.58-.07-2.11-1.61-2.63-2.1-2.77-2.6-5.35-5.45-8.11-8.06.08-.57-.22-1.04-.82-1.09-.79.19-.75,1.42,0,1.47.19.01.39-.1.5-.08.14.02,1.48,1.47,1.74,1.71,1.6,1.49,3.17,2.98,4.74,4.52,1.28,1.26,2.42,2.67,3.93,3.65.11.07.16.25.24.3.28.16,2.09.15,2.45.05.16-.04,1.88-1.39,1.95-1.52.04-.08.07-.17.05-.26-.03-.35-.54-.51-.85-.48l.31-.21c-.46-.08-.64.09-.84.47l.52.37c.05.1-.23.17-.28.24ZM16.85,33.82l-.26-3.89c-.06-.21-1.47-1.56-1.71-1.66-.73-.32-2.72-.03-3.58.01l-3.26-.12-1.27-.94c-.14-.31-.09-2.32.08-2.66.12-.25,1.6-1.61,1.82-1.65.79.08,1.92-.16,2.65.08.56.18.67.76,1.07,1.13.14.13.34.14.47.26.43.4.21,1.26,1.06,1.27s.79-1.12.08-1.26c-.21-.04-.35.1-.59-.03-.68-.36-1.27-1.33-1.97-1.72-.81.03-2.34-.29-3.05,0-.23.09-1.37,1.19-1.53,1.42-.51.71-.74,2.25-.55,3.08.08.34.97,1.06,1.29,1.23.83.44,1.84.03,2.73,0,1.46-.06,2.92,0,4.37.16.36.47,1.58,1.2,1.74,1.73.19.63-.05,1.37-.06,1.96,0,.19.09.36.09.52,0,.36-.23.77.03,1.14l3.08,2.8c2.06.46,4.27.04,6.37.25,1.84,1.34,3.15,3.33,4.89,4.79.12.1,1.02.78,1.09.8,1.58.46,1.26-1.49.31-1.37-.32.04-.51.32-.72.53l-.24-.07c-1.35-1.17-2.52-2.65-3.86-3.82-.53-.47-1.22-1.14-1.94-1.21-1.68-.16-3.65.09-5.35.09l-3.3-2.85ZM11.08,27.5c-.23-.26-.38-.63-.67-.86,1.29-.66-.08-2.22-.89-1.1-.46.64.23.8.43,1.07.08.11.07.33.19.49.29.38.8.83,1.31.74-.04-.19-.28-.24-.38-.35ZM24.5,26.07c.07-.06-.34-.7.26-.63.44.05.68,1.14.96,1.47.66.25,1.47,1.95,2.15,1.75.9-.26.38-1.36-.15-1.33-.21.01-.4.26-.62.2-.05-.01-.75-.59-.81-.67-.43-.54-.13-.78-.22-1.14-.11-.42-1.8-.83-1.97-.32v.67s.41,0,.41,0ZM23.24,31.96c.48-.46,1.05-.95.48-1.58-.95-1.04-2.05,1.02-.49,1.17v.41ZM15.24,31.96c.05-.45-.48-1.64-.91-1.76-.3-.09-2.75-.07-3.13-.02-.52.08-1.15.71-1.61.81-.81.18-2.09-.16-2.87.07-.23.07-1.29.9-1.52,1.11-.2.18-.44.69-.69.79-.26.11-.67,0-.88.15-.41.3-.02,1.42.89,1.12.65-.22.23-.87.41-1.16.14-.23,1.39-1.37,1.65-1.51.9-.5,2.26-.03,3.19-.28.5-.13,1.03-.81,1.53-.89.57-.1,1.07.1,1.57.11,1.03.02,1.37-.55,1.97.76.12.25-.01.73.4.71ZM11.33,33.66c.06.04.1.3.36.42.2.09.69.21.87.09.73-.64.26-1.49-.69-1.22-.24.07-.44.32-.68.37-.84.16-2.8-.22-3.41.05-.24.11-.78.59-1,.79-.69.63-1.35,1.42-1.99,2.11l-.69.31c.24,0,.5.05.73-.05.15-.07,1.02-.91,1.22-1.1.58-.56,1.1-1.3,1.8-1.77.23-.07,3.33-.09,3.48,0ZM36.87,33.67c-.36-.39-1.1.11-1.13.56-.02.27.32.42.17.67l-3.29,3.13c-.78.39-.9-.34-1.47-.37-.27-.01-.42.32-.71.3l-.74-.53c-.19.25.3.41.44.56.06.06.05.22.14.32.44.46.57.1.91.08.19,0,.36.1.5.08.38-.04.81-.12,1.18-.18,1.29-1.26,2.5-2.85,4.14-3.64.21-.19,0-.83-.14-.98ZM27.44,40.58c.05-.2-.11-.25-.21-.37-1.99-2.4-3.61-1.71-6.47-1.73-.77,0-1.58-.19-2.41,0l-2.24,1.65h-4.47c-1.1-1.05-2.75-1.58-2.5-3.4.06-.42.33-.41.4-.65.43-1.4-2.14-1.33-1.5.07.13.28.63.39.66.44.13.21.05,1.19.34,1.72.23.41,2.13,1.94,2.6,2.03.41.08.83-.02,1.23.03.97.11,1.95.36,2.94.2.71-.11,1.89-1.56,2.66-1.86,2.42-.05,4.86-.03,7.26.25.43.46.85,1,1.34,1.4.12.1.17.25.37.21ZM16.27,35.77c-.2-.17-.49-.16-.74-.11-.44.07-.3.41-.41.49-.09.06-.6.04-.77.12l-2.68-.21-.05-.21c-.21.21-.55.25-.47.63l.21-.05c-.26.93.6.39,1.04.47l.1-.37c.17-.12,2.26-.05,2.56.06.13.05.12.21.18.25.03.02.74.14.78.14.46-.01.65-.87.24-1.2ZM30.95,51.77c.34-.34,1.03-.75,1.11-1.26-.11-1.69.17-3.59.01-5.25-.03-.35-.06-.5-.26-.79-.56-.79-3.37-3.15-4.26-3.63-1.4-.75-1.43-.49-2.89-.47-1.93.03-3.86-.03-5.79,0l-2.1,1.48c-1.75.08-3.51-.05-5.25-.11-.77-.03-1.8.11-2.52,0-.65-.1-1.83-1.53-2.37-2.04-.12-.12-.36-.21-.43-.31-.2-.27.19-.68-.25-1.01-.74-.55-1.68.28-1,1.02.12.13.21.05.29.09.02.01.03.16.1.17.22.04.42-.17.66-.06.35.15,1.63,1.72,2.11,2.11.87.7,1.77.11,2.79.15.65.02,1.29.36,1.89.43.88.1,3.13.1,4,0s1.39-1.54,2.32-1.68c1.23-.19,2.65.07,3.88.1,1.69.04,3.37-.25,4.95.52l3.67,3.58v5.99c-1.13,1.02-2.07,2.2-3.15,3.26s-2.31,2.06-3.42,3.1-1.57,1.39-1.68,2.95c-.08,1.16.08,2.39-.02,3.55l-2.93,2.75c-.48.51-1.68-.28-1.47.74.06.31.43.15.26.58.12.16.54-.02.48.31.49-.16.14-.54.3-.79.34-.53,1.83-1.62,2.38-2.15.27-.27,1.11-1.02,1.23-1.29.64-1.41-.39-3.92.35-5.12,2.36-2.28,4.7-4.6,7.03-6.9ZM20.4,42.16c-.2-.05-.25.11-.37.21-1.73,1.44-3.18,3.22-4.83,4.73-.58.53-1.34.96-1.84,1.63l-5.39.08c-.5.45-1.05.85-1.55,1.29-.55.49-.26.37-.91.66-.18.08-.52.42-.52.61l.33.69c.38.18,1.1-.08,1.1-.58,0-.2-.3-.48-.19-.67l1.95-1.68,5.39-.08c.87-.77,1.61-1.7,2.43-2.51,1.35-1.33,2.81-2.6,4.14-3.95.12-.12.29-.22.26-.42ZM14.48,43.44c-.81.18-.46.87-.7,1.3-.06.11-1.75,1.68-1.9,1.78-.17.11-.26.14-.47.16-1.6.19-3.49-.27-5.13-.13-.59-.71-1.55-1.44-1.6-2.39-.4-1.1-2.13-.32-1.31.36.19.15.44.12.62.22.85.51,1.36,1.55,2.19,2.12l5.45.03c.67-.09,1.96-1.73,2.58-2.16.24-.11.47.12.76.04.75-.21.64-1.58-.48-1.33ZM34.48,44.36c-.51.09-.76.28-.83.8-.27,1.88.07,4.61,0,6.62-.02.45-.2.93-.11,1.41.16-.04.26-.25.29-.39.32-1.52.16-4.33.13-5.97,0-.42-.17-.76-.1-1.25.06-.42.4-.87.62-1.21ZM24.06,45.22c-.52-.08-.94.11-.92.67l-3.11,2.89c-.51.29-1.44-.22-1.48.84l.65.51c.89-.03.7-.64.93-1.03s1.96-1.76,2.42-2.32c.15-.18.15-.54.46-.69.48.3.29-.04.44-.14.09-.05.45.09.61-.01l-.11-.32.21.05-.12-.46ZM36.56,45.76c-.71.08-.94.53-1.02,1.19-.16,1.34.14,3.08.1,4.51-.02.77-.19,1.59-.13,2.39l-3.74,3.41c-.14.29-.22,1.46-.24,1.86-.04.78.13,1.93,0,2.63-.06.31-.58.63-.31.85.4.09.69.19,1.05-.1-.15-.28-.38-.4-.42-.73-.06-.42-.03-4.05.07-4.27l3.91-3.65.02-4.19c.18-.96-.07-2.06.11-3.04.11-.61,1.14-.5,1.15-.74-.16-.23-.32-.16-.55-.13ZM22.92,53.61c.21.05.25-.11.36-.22,1.29-1.34,2.48-2.78,3.79-4.09.15-.49-.02-1.01.08-1.5.11-.53.83-.87.53-1.52-.34-.74-1.77-.25-1.32.79.1.24.39.33.44.61.05.24.04,1.33-.05,1.52-1.39,1.37-2.77,2.77-3.84,4.42ZM25.02,48.73v-2.42s.15-.15.1-.26h-.41c-.35.61.12,2.12-.13,2.56-.11.2-.88.99-1.1,1.21-.37.38-1.58,1.62-1.94,1.85-.42.27-.49.05-.88.05-1.99,0-2.67-.31-4.31.95s-3.02,2.82-4.37,4.31c.19.02.31,0,.48-.1.51-.3,1.41-1.54,1.88-2.01.67-.66,2.23-2.22,2.97-2.61,1.11-.59,2.91.26,4.32-.42l3.39-3.12ZM11.25,50.15c-.18-.03-.31.04-.46.12-.17.09-1.53.97-1.59,1.04-.28.31-.04.6.15.89.88-.16,1.72-.08.96-1.14l.94-.91ZM33.75,53.3c-.1-.1-.86.43-1,.52-.33.23-.68.53-1,.79-1.69,1.42-3.24,3.2-4.89,4.68-.25,1.13.16,2.75-.08,3.81-.09.42-.51.54-.77.81-.65.65-1.31,1.28-1.92,1.97.07.38-.26,2.38-.02,2.55l.21-.11c.21.52-.51.63-.63.78-.33.4-.48,1.57-.31,2.06.32.24.49-1.27.57-1.47.12-.31.48-.53.56-.91.17-.84-.2-2.23.19-2.96.31-.59,2.3-2.04,2.44-2.5l.08-3.92c.75-.96,1.76-1.68,2.63-2.52.81-.79,1.72-1.9,2.57-2.58.39-.31.76-.42,1.13-.66.14-.09.29-.12.24-.34ZM21.97,53.82h-2.37c-.21,0-1.14.3-1.35.44-.16.1-1.13,1.01-1.01,1.14l1.47-1.11,3.26-.47ZM22.92,56.66h-3.1c-.07,0-.58.2-.68.27s-1.22,1.09-1.32,1.2c-.16.19-.25.22,0,.42l1.81-1.55c1.01-.14,1.97.2,2.97-.03l-.11-.21.42-.11ZM12.17,62.32c.13-.45.33-1.06.61-1.44s1.14-.98,1.26-1.37c.05-.16.15-1.22.15-1.43,0-.18-.13-1.15-.26-1.21-.34.48-.03.8-.05,1.42-.05,1.46-1.15,2.34-2.27,3.1l-.21-.21c-.75.48.03,1.65.76,1.13ZM9.67,58.14l-.48-.1-.04-.53c.32.03.76.28.53.63l.19.02.07.19c.17-.14.28-.49.48-.58.34-.15.94.1,1.15-.26-.43-.08-.99-.05-1.4-.13-.39-.08-.3-.58-.95-.38s-.39,2.01.45,1.14ZM35.09,58.43c-.05-1.46-2.01-.68-1.35.37.09.15.64.34.53-.03-.58-.08-.19-.66-.21-1.05.38.07.19.6.21.62.04.03.5.07.58.32l.24-.23ZM17.45,62.6c.13-.99,0-2.51,0-3.57,0-.08.18-.3.1-.47-.28.06-.15.39-.22.55-.04.1-.18.04-.21.23-.15,1.06.08,2.66-.15,3.53-.19.71-1.12,1.3-1.53,1.89.19.01.37-.16.52-.27.62-.47,1.38-1.07,1.48-1.88ZM20.6,59.92c.5-.96-1.09-1.25-1.05-.21.2-.17.39-.23.63-.05,0,.08-.35.07-.42.42-.21,1.05.37,2.25-.37,3.21-.54.7-2.52,2.1-2.74,2.74-.07.19.08.44.06.68-.03.4-.19.79-.11,1.21.6-.36.14-1.28.37-1.79.25-.56,2.24-1.99,2.79-2.68.83-1.04.2-2.22.42-3.36.03-.18.13-.26.26-.37l.16.21ZM29.86,69.07c.19-.64,1.38-1.27,1.6-1.81.13-.31.12-1.45.08-1.82-.11-.95-1.73-1.4-1.88-2.85-.1-.93.52-1.21.49-1.55-.04-.46-.69-.68-1.04-.34-.51.51.07.87.17,1.31s.02.87.21,1.37c.3.83,1.71,1.55,1.74,2.26,0,.14-.11,1.36-.13,1.45-.03.09-1.04,1.2-1.23,1.51-.05.09-.25.46-.01.46ZM34.8,61.08c-.21-.04-.25.1-.34.24-.68,1.15-.08,3.78-.32,5.15-.57.85-1.85,1.42-1.97,2.49l2.29-2.28c.02-1.15.04-2.3.03-3.45,0-.35-.14-.64-.11-1.05.04-.48.33-.68.42-1.1ZM27.79,70.82c-.2-.29-.21-2.52-.15-2.97.08-.55.78-.78.22-1.37-.59-.62-1.43.16-1.11.8.08.15.35.2.42.31.13.22.04,1.56.05,1.95,0,.37.23.73.06,1.1-.06.12-.27.21-.32.32-.07.16.12.44-.05.63l.26.1.16-.42.16.21.47-.58c0-.07-.14-.04-.17-.08ZM32.28,69.07c-.34-.08-.31.45-.32.68-.05.97.08,1.93.11,2.9l.21-.79v-2.79ZM29.75,71.38v-1.68l-.33.67c0,.26.03.51.1.76.05.18-.08.29.22.24Z"/>
      <path d="M60.31,53.83c.22-.07.61.14.57.36-.06.26-.73.37-.74-.1,0-.12.07-.22.17-.25Z"/>
      <path d="M67.18,58.24s.61,0,.63.16c-.27,1.04-.88.1-.63-.16Z"/>
      <path d="M56.55,16.28c-.21.36-.94-.34-.5-.61.35-.22.68.31.5.61Z"/>
      <path d="M62.44,14.81c-.3.17-.45.03-.72-.11l.11-.39.52.03.09.47Z"/>
      <path d="M52.95,40.38c.39-.12.63.27.36.47-.41.29-.77-.34-.36-.47Z"/>
      <path d="M71.15,56.11c-.37.37-.84-.28-.39-.56.22-.14.73.21.39.56Z"/>
      <path d="M67.15,22.93c.39-.12.83.16.56.56-.44.67-1.22-.37-.56-.56Z"/>
      <path d="M58.14,46.57c-.11,0-.21.08-.33.05-.63-.11.12-1.4.33-.05Z"/>
      <path d="M54.35,25.97l-.11.62c-.8.11-.68-.8.11-.62Z"/>
      <path d="M73.59,50.46l-.64-.15c-.33-.39.3-.8.59-.37l.05.52Z"/>
      <path d="M66.13,46.15c.29.72-.77.94-.62.11l.62-.11Z"/>
      <polygon points="44.89 36.06 45.42 36.22 45.15 36.69 44.89 36.06"/>
      <path d="M49.89,65.92c.42-.12.66.63.31.73-.42.12-.66-.63-.31-.73Z"/>
      <path d="M60.03,12.82c-.15,0-.32.03-.47,0-.73-.14.41-1.08.47,0Z"/>
      <path d="M60.04,30.29l.66-.22c.43.36.02.73-.41.81l-.25-.6Z"/>
      <path d="M48.67,13.04c.13.11.13.76-.24.72-.61-.28-.08-1.01.24-.72Z"/>
      <path d="M57.25,19.66c.3-.06.38.59.1.73l-.37-.37.27-.37Z"/>
      <path d="M31.98,41.64c.2-.31,1.07-.04.68.52-.25.36-.96-.06-.68-.52Z"/>
      <path d="M14.18,25.32c-.52.33-.78-.73-.05-.51.23.07.13.46.05.51Z"/>
      <path d="M26.91,4.31c.35.4.65.86,1,1.26.69.8.92.67,1.23,1.71.15.49,1.27,1.31,1.61,1.76l.16,6.09-1.38-.81c-.03-.27-.08-.54-.1-.81-.05-1.02.19-3.02-.02-3.87s-2.5-1.93-2.5-2.97v-2.37Z"/>
      <path d="M26.98,19.35c.24-.08.43.08.56.25l-.47.37c-.33,0-.37-.54-.09-.63Z"/>
      <path d="M15.55,19.67s.15.48.12.51h-.63s.1-.48.1-.48c.08-.06.34-.08.42-.03Z"/>
      <path d="M5.33,38.49c.35-.09.78.57.27.71-.56.15-.75-.59-.27-.71Z"/>
      <path d="M8.7,35.44c.71-.21.61,1.07-.28.35-.03-.13.17-.32.28-.35Z"/>
      <path d="M15.03,44.26c-.33.02-.65.19-.74-.26.29-.32.83-.21.74.26Z"/>
      <polygon points="10.82 18.8 10.3 18.82 10.3 18.29 10.89 18.39 10.82 18.8"/>
      <polygon points="4.42 33.32 4.52 33.95 3.91 33.94 3.78 33.43 4.42 33.32"/>
      <path d="M23.12,10.31c.23.34-.35.78-.73.62l.1-.69c.12-.1.59.01.63.07Z"/>
      <path d="M12.41,33.32v.53c-.28.04-.47-.04-.63-.26-.06-.29.47-.29.63-.26Z"/>
      <path d="M27.43,46.37c.23.33-.4.83-.61.5-.28-.45.38-.83.61-.5Z"/>
      <path d="M19.53,49.7c-.4.4-.88-.41-.34-.5.39-.07.63.21.34.5Z"/>
      <path d="M10.62,26.07l-.63.11c-.35-1.2.93-.4.63-.11Z"/>
      <path d="M23.2,30.5c.41-.03.43.62-.02.62-.4,0-.5-.57.02-.62Z"/>
    </g>
  </g>
  <g id="Layer_1" data-name="Layer 1">
    <g id="mwzfuH">
      <g>
        <path class="cls-1" d="M70.57,19.84c.05.09.87.65,1.03.81,2.14,2.18,3.12,5.25,2.94,8.29,2.25,2,3.43,5.76,3.15,8.75-.04.48-.41,1.29-.41,1.58,0,.17.64,1.35.76,1.75.73,2.54.23,5.05-1.1,7.27-.17.29-.63.68-.7.99-.17.76.05,2.05-.03,2.91-.24,2.39-1.95,4.85-3.67,6.43-.3.27-1.2.82-1.36,1.06-.2.31-.33,1.2-.49,1.61-1.13,2.96-3.18,5.45-6.17,6.66-.47.19-1.48.37-1.82.6s-.51.85-.74,1.15c-1.94,2.6-5.25,3.45-8.29,3.47-1.52,0-.98.06-2.02.72-4.47,2.85-11.68.88-11.92-5.08V6.35c.19-7.98,10.1-7.58,14.67-3.52.23.2.46.68.69.78.37.17,1.36.28,1.87.45,3.63,1.17,6.3,3.65,7.54,7.28,3.27,1.19,5.22,3.89,5.91,7.23.06.29.04,1.05.16,1.26ZM40.58,5.94v20.87c.49-.24.93-.58,1.24-1.02l.02-5.55,1.55-2.02c.22-1.21-.4-3.01.45-3.96,1.27-1.42,3.27-2.77,4.51-4.21.15-.17.37-.41.41-.64l-.12-5.76c-.35-.32-2.34-2.02-1.87-2.49h.63c-.3,1.1,1.33,1.88,1.53,2.73.24.98.02,3.23.04,4.37,0,.25.12.48.12.73,0,.67-.78,1.56-1.22,2.05-1.22,1.36-2.87,2.32-4.03,3.75-.19,1.74.47,3.05-.76,4.5-.29.34-.88.67-.93,1.06-.06.46.09.75.1,1.15.02,1,.16,4.08-.27,4.78-.15.24-.67.84-.89,1.11-.12.14-.52.34-.52.37v3.78c1.92-.65,1.29-1.42,1.47-2.89.12-1.02,1.35-1.38,1.74-2.25l.1-4.74c.27-.53,1.89-1.6,2.03-2.07.05-.18.07-2.08.02-2.27-.02-.08-.21-.07-.21-.13l.1-.35c-2.14-1.51,2-1.97.77-.24-.1.14-.3.21-.34.31-.26.65-.1,2.15-.24,2.89l-1.74,1.94c-.21,1.36.27,3.51-.18,4.77-.21.59-1.53,1.67-1.61,1.96-.15.49.06,1.4-.03,1.97-.11.71-1.03,1.4-1.68,1.53l.1-.2-.31-.11.05,1.16c.65-.84,2.63-.95,3.05-1.89.15-.34-.08-.86.39-1.08,1.03-.48,1.63,1.05.61,1.35-.27.08-.46-.14-.73-.01-.2.09-.73.72-1.02.88-1.04.59-1.13.19-2.09,1.28-.08.09-.26.09-.26.1v10.09h.42s-.02.61-.02.61l-.3.12-.11-.42v4.52s.2-.01.3.06c.3.2.58.55.92.76,1.4.88,2.11.38,3.56.54.53.06.87.39,1.26.73.88.76,1.65,1.7,2.47,2.52-.27-.07-.57-.35-.79-.53-.67-.55-2.24-2.33-2.94-2.42-.82-.1-1.92.14-2.71-.02-.59-.12-1.58-.87-2.07-1.24v3.68s.21-.05.29.02c.26.23.31,1.05.39,1.35.26,1.01,1.62,1.48,2.11,2.41.65,1.24.22,3.01.48,4.36.08.41,2.26,2.14,2.7,2.24,1.31.17,2.92-.03,4.19.12.93.11,1.52,1.35,2.31,1.79.32.41.33,1.85.27,2.36-.13,1.06-1.54,1.88-2.21,2.62-.56.25-2.36-.08-3.1.06-.27.05-.44.4-.85.41-.83.03-.94-1.2-.06-1.31.51-.06.65.51,1.02.58.41.08,2.07.06,2.52,0,.75-.09,1.71-1.53,2.24-2.07l.02-2.37-1.97-1.73-4.48-.15c-.76-.5-2.81-1.8-2.99-2.68-.27-1.35.32-2.83-.4-4.22-.43-.82-1.83-1.26-2.38-2.35-.09-.18,0-.49-.19-.5-.04.31.1.59.11.89.18,4.69-.43,10.03,0,14.6.59,6.18,7.87,6.85,11.84,3.35,3.15.59,6.8-.49,8.8-3.08.22-.28.68-1.31.76-1.36.27-.19,1.54-.38,2.03-.57,2.19-.85,3.89-2.39,4.96-4.39.2-.37.56-1.03.72-1.39.26-.6.43-1.89.79-2.37.23-.3,1.49-.98,1.95-1.42s1.71-2.01,1.92-2.58c.07-.18.02-.47.13-.73.21-.51.59-1.05.73-1.58.31-1.15.1-2.46.07-3.61,2.15-2.62,3.35-7.08.88-9.85-.31-.34-.73-.6-1-.89-.14-.15-.99-1.11-1.03-1.18-.37-.73.06-2.44-.18-3.29l-2.31-2.42c-.38.81-.8-.1-1.52.48-.18.14-.67.87-.88.96-1.43.62-2.5.23-3.88-.1-.11-.03-.32-.03-.29-.18h1.63c.2,0,.5.35.65.4.54.16,1.17-.17,1.6-.46.79-.54,1.12-1.65,2.16-.88l.12-.32c.31-.04.59-.13.87.07.77.92,2.11,1.66,2.32,2.94.09.58-.09,2.2.07,2.45.13.23.43.38.57.59.4.59.55,1.25,1.31,1.63.24,0,.49-1.75.48-2.05-.05-2.2-.67-4.54-1.92-6.39-.25-.38-1.24-1.31-1.31-1.54-.07-.24.1-1.2.06-1.63-.15-1.83-.86-3.64-1.91-5.13-.27-.38-.65-.72-.82-1.12h-.15c-.15.02.05.13.05.16v2.1c0,.13-.54.66-.68.79-.57.56-2.13,1.77-2.48,2.36-.14.24.02.39-.08.53-.06.09-.47.34-.59.36-.34.06-.13-.5-.16-.53-.22-.22-.17.27-.31.21l-.11-.63.9-.1,3.04-2.85c.15-.34.07-2.46-.11-2.83-.1-.21-.49-.38-.55-.61-.12-.41-.07-1.17-.15-1.63-.3-1.65-1.65-3.87-2.92-4.97-.42-.36-1.01-.79-1.58-.79l-.16,2.21c-.89.83-1.65,1.82-2.66,2.49l-.28,2.66c-.87.7-1.78,2.22-2.68,2.79-.17.11-.26.14-.47.16-.41.05-2.05.06-2.39-.03-.56-.14-1.64-1.8-2.23-2.18v-3.05c.05-.15.15-.25.26-.37.17-.17,1.08-.82,1.14-.91.18-.3-.39-.93.44-1.2,1.17-.37,1.26,1.39.26,1.43-.26,0-.37-.27-.57-.17-.17.09-1.16,1.02-1.22,1.21-.13.42-.08,2.56.09,2.97.08.2,1.76,1.86,1.96,1.93.38.12,2.34.1,2.67-.07l2.57-2.79c-.06-.51.13-1.09.14-1.55,0-.24-.11-.48-.12-.73,0-.45.09-1.87-.05-2.16-.09-.18-.41-.14-.46-.49-.18-1.37,1.93-1.23,1.38.05-.07.16-.29.19-.4.34-.39.53-.02,1.4-.05,2,.2-.14.29-.43.47-.63.36-.42,1.78-1.62,1.9-1.99.22-.72-.22-1.56,0-2.32-.25-.24-.68-.19-.91-.47-.24-.3-.52-1.56-.78-2.06-.14-.28-.76-1.21-1.01-1.31-.7.12-1.23-.22-1.89.1-.59.29-.81.97-1.37,1.29-.14.88-.31,1.48-1.35,1.07l.19-1.2c1.09.14,1.39-.81,2.11-1.37.64-.5,1.12-.36,1.89-.37-.35-.36-.98-1.4-1.52-1.37s-2.67,2.37-3.21,2.89c-.69.67-2.22,1.71-2.57,2.58-.26.66-.02,2.2-.29,2.97-.23.65-1.38,1.23-1.53,1.94-.23,1.13.11,2.86,0,4.06,1.26.95,2.02,2.45,3.45,3.17l5.82.03,3.88-3.79c.14-.35.15-2.46-.04-2.75-.15-.24-.37-.02-.31-.64.06-.53.45-.82.98-.66s.73,1.61-.13,1.35c-.09.8.23,2.37-.31,3-.11.13-.33.22-.48.36-.83.84-1.69,1.95-2.57,2.69-.31.26-.66.58-1.05.64-.61.09-1.85-.09-2.58-.07-1.05.02-2.17.21-3.25.11-.27-.05-1.27-.87-1.53-1.1-.35-.31-2.05-1.93-2.21-2.2-.07-.13-.09-.17-.1-.32-.09-.69-.09-3.33.01-3.99s1.47-1.46,1.76-2.13c.21-1.53-.3-3.32-.09-4.82.06-.39.37-.79.22-1.31.11-.03.21.45.21.47v2.79l.37-.63,5.14-4.93.07-.22c-.52-.15-1.25-.86-1.79-.69-.21.06-1.14.82-1.31,1.01-.43.49-.33,1.17-.63,1.47-.98.96-2.25-1.13-.29-1.09l1.81-1.76-2.76-.65c-.81-.89-1.73-1.91-2.91-2.29.14.57.28,1.26.31,1.84.12,1.75-.34,1.88.8,3.41.15.2.56.44.41.64-.7-.32-1.42-.87-1.58-1.68-.23-1.11.1-2.27-.3-3.48-.14-.42-.79-.59-.37-1.26l-1.58-.42c-.05.17.18.05.21.17.04.19-.05.46.04.68l.53,1.25c-.55-.56-1.53-1.38-.89-2.21-.47-.05-.96-.17-1.42-.22-1.6-.17-3.14-.1-4.67.59-1.8.81-2.48,2.52-2.63,4.41ZM62.44,14.81l-.09-.47-.52-.03-.11.39c.27.14.41.28.72.11ZM45.81,15.68c-.37.1-.42.66.08.62s.52-.79-.08-.62ZM56.55,16.28c.18-.3-.15-.83-.5-.61-.44.27.29.97.5.61ZM44.33,30.08c-.8.23.28,1.16.45.14-.12-.17-.26-.2-.45-.14ZM47.41,69.49c-.22-.77-1.17.25-.37.63l.23-.26-.18-.48.31.1Z"/>
        <path class="cls-1" d="M11.54,64.79c-.07-.09-.9-.38-1.13-.5-2.26-1.2-3.9-3.1-4.57-5.62-.11-.43-.26-1.97-.39-2.18-.07-.1-.65-.45-.81-.61-1.53-1.46-2.26-2.84-2.48-4.96-.05-.46.04-1.38-.07-1.75-.04-.14-.8-1.01-.98-1.33-1.3-2.29-1.38-5.49-.61-7.97.12-.38.65-1.38.65-1.65,0-.18-.14-.37-.17-.56-.49-3.23.22-5.91,2.14-8.53.14-.19.5-.44.55-.61.05-.18-.11-1.39-.09-1.77.1-2.25,1.17-4.98,2.74-6.62.25-.26.86-.59,1.04-.85.25-.36.26-1.07.4-1.49,1.01-3.01,3.37-5.58,6.42-6.57,1.2-3.54,4.46-6.46,8.1-7.31.43-.1,1.13-.07,1.47-.21.21-.09.7-.79.97-1.03,3.54-3.11,11.2-4.27,13.37.93.59,1.42.39,2.76.4,4.22.07,20.66.07,41.36-.13,62-1.29,7.55-13.04,6.18-16.55,1.05-3.96-.02-7.71-1.57-9.79-5.03-.15-.26-.38-.94-.47-1.06ZM33.06.84c-.68-.07-1.46.05-2.16,0,0,.5.2.88,0,1.37l.19-.09c.43.46.15.8.46,1.28.44.7,2.24,1.84,2.43,2.3.17.43.06,1.06.06,1.53l-.3.12-.1-1.64-2.9-2.68c.06-.71-.06-.74-.29-1.29-.09-.22-.04-.47-.18-.66-.21-.16-1.26.24-1.54.37-.11.78-.4,1.75.11,2.42.22.3,1.6,1.69,1.89,1.89.51.35,1.1.09,1.06,1.06-.27-.02-.51.42-.55.42-.2.02-.74-.22-.76-.5-.01-.19.12-.36.03-.55-.26-.61-2.48-2.1-2.48-2.79v-1.63c-1.63.36-2.89,1.61-4.02,2.76-4.3.33-7.93,3.41-9.28,7.44-3.17.91-5.43,3.47-6.35,6.58-.15.49-.07,1-.43,1.41.55-.02.8.44,1.32.52.74.11,2.77-.17,3.26.11,1.42,1.24,2.68,2.65,4.04,3.95.77.74,3.85,3.14,3.99,4,.12.78-.18,1.98.14,2.7.08.17,1.41,1.61,1.58,1.68.41.16,1.62.09,2.13.08,1.51-.02,3-.06,4.51-.11.44-.02,1.28.15,1.57,0,.34-.19,1.9-1.55,2.23-1.87.11-.11.49-.57.47-.69-.06-.18-.27-.05-.3-.08-.43-.4-.09-1.54-.11-2.03-.07-1.4-2.41-1.97-3.04-3.27-.54-1.11-.35-3.9-.33-5.25,0-.21.1-.4.09-.61-.64-.97-2.11-1.41-2.15-2.67-.03-.78-.03-1.61-.05-2.39-.03-1.29-.03-2.6.09-3.87-.58-.47-1.01-1.11-1.56-1.6-.25-.23-1.65-1.34-1.87-1.39-.48-.12-2.02-.05-2.61-.03-.36.01-.74.19-1.06.2-.3,0-.65-.18-.99-.1.1-.21.52-.07.76-.13.18-.05.71-.39.87-.39h2.89l-.31.21c.25,0,.49-.04.73.06.68.27,2.63,2.06,3.11,2.67.68.89.18,1.86.48,2.89.09,1-.46,3.94.13,4.65.08.09.28.15.39.29.44.52.87,1.01,1.34,1.5.09,1.22-.04,2.45.02,3.66.02.44.06,1.39.13,1.76.3,1.45,3.06,1.76,3.33,3.71.08.56-.14,1.03-.1,1.46s.52.56.23,1.06c-.14.24-1.5,1.53-1.79,1.78-.34.29-.72.67-1.15.74h-8.1c-.45-.09-1.66-1.4-1.84-1.85-.35-.92-.03-1.88-.15-2.79-.05-.37-.94-1.17-1.27-1.47-1.01-.94-2.14-1.78-3.16-2.73-.96-.9-2.34-2.64-3.31-3.31-.51-.35-1.85-.21-2.53-.22-.82,0-.76-.06-1.49-.18-.4-.06-.82,0-1.22-.11-2.3,2.11-3.03,5.27-2.83,8.32-1.1,1.26-2.05,2.83-2.47,4.47-.25.96-.47,1.66.02,2.55.4.73.73,1.1,1.63.94-.04.13-.6.2-.7.2-.38,0-.63-.06-.93-.3-.18-.15-.19-.37-.36-.42-.18.62.3,1.45.32,1.95.01.38-.34.66-.3.93.02.13.51.84.65.92.41.23,1.06.08,1.53.37.42.26,1.58,1.87,2.05,2.36.41.43.84.86,1.29,1.24.09.05.18.07.28.07.46.04,2.32.02,2.73-.06.38-.07.8-.66,1.32-.36l.21.43-.68-.27c-.34.15.13.76-.21.84-.16.04-.27-.26-.53-.31-.79-.15-2.83.21-3.41-.06-.74-.47-2.84-3.62-3.42-3.73-.88-.17-1.36.32-1.89-.85-.09-.19.03-.51-.16-.52-.96,2.65-1.04,5.7.36,8.2.21.38,1,1.26,1.06,1.46.16.51-.06.92-.04,1.32.04.75.32,2.98,1.13,3.26.27.09,1.44.33,1.74.36,1.77.19,3.92-.1,5.73-.06l7.88-7.68c.65-.2.27-.28.42-.52.16-.26,2.16-2.08,2.4-2.13l5.08-.08c.53.11,2.6,1.87,2.78,2.38.04,1.53.22,3.23-.11,4.72l-5.56,5.47c-.14-.12-.03-.35.05-.48.26-.45,1.33-1.21,1.74-1.62.29-.29.52-.64.78-.9.93-.92,1.98-1.73,2.82-2.75.02-1.47-.27-2.97.06-4.42l-2.72-2.02-4.99.05c-1.08.81-1.89,1.9-2.84,2.84-2.09,2.09-4.48,4.67-6.68,6.57-.37.33-.78.64-1.21.9-2.42.08-4.86.14-7.26-.16.54.89,1.32,1.57,2.15,2.21.23,2.78,1.38,5.48,3.8,7.02.75.48,1.48.6,2.22,1.05.56.14.99-.45,1.34-.82.53-.54,1.07-1.23,1.52-1.84v-3.21c.37-.08.16.34.22.57s.2.4.21.64c.01.31-.12,2.1-.21,2.32s-1.33,1.64-1.58,1.89c-.22.22-1.26.9-1.27,1.14,1.64,3.63,5.88,5.33,9.7,5.01,2.53,3.75,8.6,5.7,12.68,3.5s2.47-6.86,2.75-10.51c-.27-.32-.2-.63-.72-.5-.27.06-.6.22-.65.51-.24,1.25.31,3.42-.14,4.59-.33.85-2.07,1.83-2.17,2.46-.08.5.08.94-.11,1.47-.02.06-.12.35-.22.2.26-.6.08-1.6.29-2.13.31-.78,1.51-1.34,1.9-2.1.14-1.28-.11-2.71.02-3.97.11-1.11.54-1.04,1.29-1.52.13-.08.2-.34.51-.38v-1.3c-.75.06-.97.69-1.73.7-.08,0-.36-.05-.39-.12-.07-.21.17-.18.29-.23.54-.2,1.04-.45,1.59-.62.57-.31-.02-1.66,0-2.09,0-.06.19-.05.21-.13.08-.34-.06-.92,0-1.3-.68-.02-.95.71-1.68.52.21-.68,1.58-.8,1.68-1.32v-9.51s-.31.05-.31.05l.32-.62v-6.89c-.3.12-.71.15-1.01.11-.22-.03-.1-.24-.3-.22-1.11.11-.56,2.62-.7,3.42-.05.27-.61,1.08-.52.64.19-.89.15-1.22.21-2.11.02-.35.09-1.52.17-1.73.38-.95,1.54-.66,2.15-1.24v-12.38c-.08-.73-1.11-2.54-1.68-2.95-.26-.19-.6-.15-.79-.36-.37-.42-.09-1.2.5-1.13.79.09.48.79.72,1.28s.93,1.02,1.14,1.59c.14.16.17-.3.17-.33,0-2.33-.06-4.71-.07-7.02-.02-3.47.26-7.43,0-10.83-.19-2.55-2.05-4.31-4.57-4.57Z"/>
        <path class="cls-1" d="M45.63,39.21c-1.21-.17-1.58.61-2.26,1.26-.34.32-.81.6-1.1,1,.43.09.61-.68,1.05-.68l-1.24,1.44c.08.95-.04,2.23.08,3.14.02.14.03.19.1.32.31.54,1.8,1.47,2.24,2.07.91.24,2.11-.12,2.97.29.28.13,1.36,1.17,1.68,1.47,1.53,1.41,2.91,2.99,4.39,4.45.35.14.97-.12,1.38-.14,1.7-.08,3.62.25,5.2-.25.55-.18,1,.07.83.7,0,.04-.28.57-.31.59-.53.33-.89-.66-1.19-.72l-6.25-.05c-1.18-1.04-2.2-2.33-3.31-3.42-.59-.58-1.85-1.86-2.48-2.25-.86-.54-2.21.31-3.41-.59-.24-.18-1.99-1.71-2.06-1.83-.11-.19-.19-.99-.21-1.26-.03-.46-.06-2.84.06-3.1l2.08-2.03c.48-.22,1.31-.96,1.76-.39ZM60.31,53.83c-.11.03-.18.14-.17.25,0,.47.68.37.74.1.05-.22-.34-.43-.57-.36Z"/>
        <path class="cls-1" d="M59.29,69.28c.08-.84.35-1.96.08-2.76-.23-.66-1.11-1.09-1.55-1.6-.92-1.07-.33-2.72-.53-3.99-.06-.41-1.12-1.46-1.52-1.52l-6.35-.17c-.24-.1-1.46-1.27-1.53-1.51-.2-.65.05-1.77-.04-2.48-.05-.38-1.25-1.56-1.64-1.62-.21-.03-1.17-.05-1.34-.01-.11.03-.13.3-.23.42-.63.75-1.68-.08-1.18-.92.6-.44.95.12,1.29.18.45.09,1.09-.07,1.57,0,.54.08,1.53,1.34,1.89,1.79l.08,2.65,1.24,1.28,6.46.06c.33.06,1.67,1.48,1.73,1.84.16.89-.17,2.2.05,3.1.21.81,1.21,1.24,1.69,1.89.52.7.19,2.38.21,3.26l-.37.1Z"/>
        <path class="cls-1" d="M49.73,53.67c-.02-.08-.35-.3-.42-.42.2-.1.77.42.82.65.21,1.08-.45,2.21.86,2.83h6.52s2.19,2.11,2.19,2.11l.08,3.92c.08.23,1.54,1.73,1.76,1.82.31.12,1.86.14,2.21.06.38-.09.86-.77,1.26-.95.88-.39,2.28-.07,3.23-.08l-.18.32-3.01.02-1.18,1.03-2.5-.02-1.99-2-.1-4.1c-.45-.47-1.63-1.78-2.23-1.87-1.83-.25-4.21.2-6.1,0-.29-.03-1.21-.9-1.21-1.1,0-.48.1-1.87,0-2.21Z"/>
        <path class="cls-1" d="M49.86,48.07c.63-.68,1.05.37,1.44.76,1.12,1.11,2.58,2.1,3.73,3.21,1.76.34,3.84-.12,5.58.09.53.06,1.22.65,1.63,1,1.31,1.12,3.5,3.96,4.78,4.69.36.2.97-.02,1.02.68.06.97-1.11.94-1.33.27-.07-.2-.02-.42-.1-.63-.22-.54-2.72-2.84-3.31-3.42-.52-.51-1.53-1.75-2.15-2.06-1-.5-4.34-.09-5.69-.2-.74-.06-1.28-.64-1.84-1.11-.87-.73-1.7-1.63-2.59-2.35-.48-.3-1.13.43-1.38-.36.08-.16.11-.46.22-.57ZM67.18,58.24c-.25.25.36,1.19.63.16-.01-.17-.58-.2-.63-.16Z"/>
        <path class="cls-1" d="M74.22,44.26c-.45-.22-1.02-.13-1.43-.31-.6-.26-.99-.93-1.41-1.33-.39-.38-1.99-1.98-2.38-2.04-1.29.2-2.71.08-3.99.21-1.45.14-2.38,2.1-3.49,2.92-2.14.32-4.36.02-6.52-.05-.58-.27-.52-1.73-1.46-2.22-.48-.25-1.2-.03-1.09-.9s1.18-.72,1.35.02c.05.21-.11.38-.04.55.09.24.66.5.78.7.27.43.03,1.4.74,1.68,1.7.11,3.41,0,5.11.04.33,0,.66.24.95.01.76-.66,2.04-2.55,2.99-2.79.69-.18,1.75-.09,2.47-.16.78-.07,2.29-.55,2.88-.04,1.01.86,2.31,2.6,3.38,3.25.39.24.9.1,1.15.48ZM52.95,40.38c-.41.13-.05.75.36.47.27-.19.03-.59-.36-.47Z"/>
        <path class="cls-1" d="M54.04,46.78c.59.08.36.8.44,1.19.1.46,2.06,2.02,2.55,2.07,1.59.19,3.49-.19,5.11.04,1.97,1.54,3.67,3.41,5.46,5.16.74-.09,1.84.28,2.48.25.24-.01.38-.34.71-.29.55.09.91.89.26,1.17-.75.32-.98-.48-1.54-.61-.52-.12-1.81-.05-2.15-.27l-5.39-5.22c-1.52.03-3.21.2-4.72.08s-2.02-1.1-3.04-2l-.16-1.57ZM71.15,56.11c.34-.35-.17-.69-.39-.56-.45.28.03.93.39.56Z"/>
        <path class="cls-1" d="M65.22,30.24c.48.41,1.36.25,1.96.19.7-.83,1.65-1.47,2.37-2.26.44-.48.58-1.26,1.52-.95l-.42.37.31.63c.41.25.33-.73.32-.9.53.41.1,1.21-.49,1.24-.32.01-.45-.44-.87-.24-.4.19-1.6,1.7-2.1,2.1-.17.13-.37.32-.58.36-.31.06-1.66.05-1.95-.04-.11-.03-1.45-1.25-1.57-1.4-.53-.64-.31-1.95-.23-2.73,1-1.35,2.73-2.12,3.28-3.76.65-.7,1.73.19,1.12.91-.45.52-1.04-.05-1.22.04l-2.92,2.97v1.85s1.49,1.61,1.49,1.61ZM67.15,22.93c-.66.2.12,1.23.56.56.27-.41-.17-.68-.56-.56Z"/>
        <path class="cls-1" d="M56.49,67.04c.08.07.3.04.38.19l-.31.43.2.29-.17.28-.51-.1c-.18-.32.12-.7.04-.98-.05-.2-.64-.61-.81-.88-.63-1.02-.07-2.28-.39-2.98-.06-.14-1.97-2.04-2.09-2.11-.69-.4-3.82.13-4.79-.15-.48-.39-.95-.8-1.42-1.21-.14-.12-.23-.38-.33-.43-.39-.23-1.06.13-1.09-.57-.03-.57.53-.88,1.02-.58.45.27.11.62.2.84.06.16,1.61,1.61,1.82,1.66l4.65.08c.92.92,2.39,1.76,2.52,3.15.05.51-.09,1.16.05,1.63.06.2.86,1.28,1.04,1.43Z"/>
        <path class="cls-1" d="M60.34,27.96c-.53.04.02-.57,0-.68l-.53-.16.1.84c-.89-.23-1.51.86-2.04,1.37-.43.41-.99.77-1.37,1.26-.38,1.84.78,4.31-1.27,5.36-.39-.06-.77.09-1.15.11-.66.03-2.36-.25-2.79-.06-.14.06-1.08.88-1.27,1.05-.36.33-.7.71-1.04,1.07l-.22,1.51-.21-.31c-.09-.94-.02-1.2.63-1.84.32-.31,1.55-1.4,1.88-1.59,1.07-.62,3.57.09,4.23-.4.12-.09.7-.83.73-.96.19-.96-.14-2.46,0-3.47s2.28-2.5,3-3.3c.29-.32.35-.87.93-.84.65.04.47.6.38,1.05Z"/>
        <path class="cls-1" d="M72.1,46.07c.36.36.12,1.37-.6,1.19-.52-.12-.55-.4-.56-.88l-3.02-2.7c-.23-.1-1.62-.09-1.95-.06-.31.03-.37.04-.63.22-.68.47-2.29,2.47-2.87,2.71-.22.09-.66.12-.91.14-.78.05-1.62-.15-2.31-.11-.59.03-1.96.88-1.96-.26,0-.83,1.08-.74,1.35-.05l3.42.08,3.15-2.74,2.44-.18c.2,0,.36.11.53.21.81.46,2.27,2.14,2.9,2.36.28.1.73-.21,1.02.08ZM58.14,46.57c-.21-1.35-.96-.06-.33.05.12.02.22-.05.33-.05Z"/>
        <path class="cls-1" d="M50.29,3.75c.09.06.26,0,.29.09v3.86s1.35,1.92,1.35,1.92c-.09,1.13.14,2.47,0,3.57-.1.84-1.26.93-1.45,2.23-.27,1.86.16,4.14-.05,6.05l-.99,1.22c.9,1.76-1.88,1.57-1.08.18.24-.41.66-.18.92-.34.06-.03.78-.97.83-1.07.48-.97-.14-4.88.14-6.27.19-.92,1.37-1.68,1.45-2.33.06-.49.08-2.72-.03-3.13-.14-.53-1.31-1.33-1.44-2.13-.12-.74.03-1.83,0-2.63-.02-.45-.2-.93-.11-1.41.17-.04.06.13.14.18Z"/>
        <path class="cls-1" d="M41.74,14.29l.42-1,5.02-5.07-.03-3.3c-.36-.43-.72-1.02-1.1-1.42-.31-.32-1.79-1.3-1.69-1.68.03-.12.21-.18.35-.14.4.11,2.43,2.51,2.76,3.03.11.36.12,3.21.04,3.63-.04.23-.27.46-.41.64-1.12,1.35-2.94,2.62-4.14,3.95-.42.47-.5,1.32-1.22,1.35Z"/>
        <path class="cls-1" d="M47.31,38.05c-.3-.22-.48-1.55-.4-1.82.71-.55,1.66-1.84,2.35-2.28.77-.5,2.82-.03,3.78-.21.5-.09.85-.83.9-1.31.14-1.48-.14-2.89-.22-4.31-.02-.38.16-.99,0-1.24-.1-.16-.39-.14-.4-.53,0-.99,1.24-.84,1.34-.33.15.8-.46.68-.53,1.05l-.08,6.33c-.04.11-.4.51-.5.56-.64.36-2.98-.11-3.84.16l-2.37,2.15-.06,1.79ZM54.35,25.97c-.79-.18-.92.73-.11.62l.11-.62Z"/>
        <path class="cls-1" d="M57.82,48.57c-.02-.19.24-.1.37-.11.45-.02.91.02,1.37,0,.2,0,.4-.1.63-.11,1.38-.04,3.62-.26,4.68.58,1.16.92,3.51,3.87,4.79,4.04,1.15.16,2.4-.28,3.46.43l.73.95c-.98-.67-1.4-.95-2.63-1.05-2.33-.19-2.06.16-3.78-1.48-1.08-1.03-2.2-2.04-3.24-3.12-.19.04-.56-.13-.66-.13h-5.73Z"/>
        <path class="cls-1" d="M66.56,46.76s.69.47.83.6c.54.5,2.35,2.43,2.84,2.63.23.09,1.76.11,2.04.05s.37-.33.59-.46c.94-.57,1.55,1.17.36,1.21-.82.03-.87-.34-1.18-.41-.14-.03-.9.12-1.25.09-1.59-.13-3.03-2.83-4.5-3.45-1.22.78-1.54-1.4-.24-1.18.67.11.44.84.49.93ZM66.13,46.15l-.62.11c-.15.83.91.6.62-.11ZM73.59,50.46l-.05-.52c-.3-.43-.93-.02-.59.37l.64.15Z"/>
        <path class="cls-1" d="M72.01,34.38l-.52.37.19.06-.08.24c.31.12.12.23.21.48-.26.02-.51-.26-.77-.19-.28.07-.76.93-1.29,1.03-1.38.25-3.48-.18-4.94,0-.22.03-.19.25-.39.35-.58.29-1.49-.48-.72-1.03.63-.46.62.07.85.22s3.26.03,3.84.05c.89.02,1.45.36,2.11-.62.24-.36.09-.32.46-.69.39-.39.32-.52,1.05-.26Z"/>
        <path class="cls-1" d="M51.2,29.96c0,.18-.32.1-.5.18-.55.25-.07.53.16.74.06.05.31.08.03.19-.42.15-.48-.18-.76-.14-.15.02-.86.36-1.02.47-.53.36-2.45,2.33-2.9,2.88-.18.22-.75,1.11-.77,1.33-.01.16.23.33.28.53.24,1.06-1.69,1.21-1.38-.05.68-.7,1.17-1.56,1.81-2.29.51-.58,1.96-2.16,2.5-2.57.39-.3,1.09-.43,1.28-.59.36-.29.2-1.14,1.26-.68ZM44.89,36.06l.26.63.26-.47-.52-.16Z"/>
        <path class="cls-1" d="M51.31,24.07c.41.18.61-.34,1.1,0,.12.08.16.26-.05.16l-.32-.11-.16.69c.43.33.52-.11.79-.32,0,1.07-.84.57-1.16.69-.25.09-1,1.02-1.42,1.1l-2.92-.02-1.52-1.21v-2.37c.55-.92,1.53-1.54,2.29-2.28-.19.86-1.77,1.63-1.95,2.31-.14.54-.15,1.89.21,2.32,1.03,1.25,2.34.93,3.79.94.67-.52,1.69-.87,1.32-1.89Z"/>
        <path class="cls-1" d="M58.24,35.22c.32.12.26.92.15,1.15-.23.51-1.79,1.6-2.22,2.09-.7.37-3.19-.14-3.67.22-.22.56-1.25,1.14-1.44,1.61s.02,1.04-.09,1.48c-.04.14-.12.21-.25.07-.27-.31-.19-1.54-.03-1.92.08-.19,1.18-1.29,1.39-1.45,1.03-.76,2.65.03,3.83-.27l2.26-2.05.05-.95Z"/>
        <path class="cls-1" d="M53.04,45.83s.14-.15.26-.1l-.18.3c-.56-.05-1.13.1-1.66.13-1.3.06-3.61.14-4.84,0-.21-.02-.29-.05-.47-.16-.22-.14-1.77-1.47-1.84-1.63-.17-.37-.08-1.58.16-1.94.14-.22,1.79-1.81,1.94-1.84.06-.01.17-.03.16.05-.42.38-.73.9-1.1,1.32-.19.21-.66.45-.74.63-.11.24-.09,1.42,0,1.69.14.45,1.39,1.23,1.79,1.57,2.06-.18,4.51.24,6.52,0Z"/>
        <path class="cls-1" d="M44.68,71.49c-.75-.36-.22-1.33-.47-1.89-.18-.39-1.45-.87-1.69-1.68-.2-.68-.03-3.13-.25-3.43-.06-.08-.23-.1-.29-.18-.52-.69.82-1.49,1.15-.79.31.65-.28.8-.35,1.28-.08.59-.03,2.6.17,3.12.16.4,1.73,1.47,1.73,1.83v1.73Z"/>
        <path class="cls-1" d="M64.97,60.76h-.42c0,.41.52.45.84.42l-.21-.37.26-.16c.81.78-.7,1.48-1.25.73-.1-.14-.1-.36-.22-.51-.24-.3-2.16-2.01-2.4-1.98-.15.02-.28.21-.54.19-.72-.06-.81-1.2-.09-1.35s.63.45.93.81c.14.17,2.22,1.9,2.36,1.95.22.08.57-.22.73.26Z"/>
        <path class="cls-1" d="M63.87,38.48c-1.83.19-2.11,2.05-3.78,2.21-.54.05-1.1-.2-1.58-.1-.32.06-.34.41-.74.43-.85.05-1.09-1.22-.19-1.36.44-.07.63.46.95.59.55.22,1.38.1,1.97.13.4-.08,1.58-1.66,2.35-1.96.47-.18,1.79-.06,2.39-.03.13,0,.39-.08.37.11-.56.04-1.18-.06-1.73,0Z"/>
        <path class="cls-1" d="M67.71,38.58c.05-.19.41-.3.57-.32.62-.08,2.08-.1,2.73-.09.71.02,1.18.6,1.69,1.04.12.1.17.31.26.37.18.12.55-.13.87-.04.96.28-.17,1.83-.92,1.14-.45-.42-.11-.7-.21-.95-.06-.15-1.21-1.2-1.4-1.25-1.22.2-2.37.25-3.6.09Z"/>
        <path class="cls-1" d="M49.29,66.32c.06-.06.04-.49.41-.59.84-.25,1.37.71.65,1.18-.66.44-.81-.18-1.21-.25-.56-.11-1.68,0-2.32,0-.17,0-.42-.11-.51-.09-.16.04-.21.37-.38.46-.74.37-1.45-.5-.69-1,.61-.41.62.02.96.2.26.14,2.96.21,3.07.1ZM49.89,65.92c-.35.1-.11.85.31.73.35-.1.11-.85-.31-.73Z"/>
        <path class="cls-1" d="M59.95,13.27c-.14.23.04,3.01-.02,3.61-.02.22-.07.59-.31.68l-.11-4.31-.43.05c-.69-.8.54-1.9,1.21-.99.48.65-.22.77-.34.96ZM60.03,12.82c-.06-1.08-1.2-.14-.47,0,.15.03.32,0,.47,0Z"/>
        <path class="cls-1" d="M61.06,30.09c.11.19,0,1-.27.74l-2.07,1.98-.16,2.1-.3-.12.03-1.99c.16-.43,1.4-1.37,1.48-1.68.07-.28-.13-.43-.14-.68-.02-.65,1.21-.73,1.44-.34ZM60.04,30.29l.25.6c.44-.08.84-.45.41-.81l-.66.22Z"/>
        <path class="cls-1" d="M48.6,14.01c-.37.45-.21,2.12-.24,2.76l-.21,1.95-.21-4.57c-.06-.33-.58-.5-.22-1.06.48-.73,1.82-.09,1.16.75-.07.09-.23.12-.29.18ZM48.67,13.04c-.32-.28-.86.44-.24.72.37.03.37-.61.24-.72Z"/>
        <path class="cls-1" d="M43.1,9.25h.21c-.11.32-.49-.09-.57-.22-.54-.9.37-.93.54-1.17.12-.17.09-.82.15-1.06l.5-.92c.19.54-.26,1.63-.18,2.04.05.24.56.3.38.94-.17.56-.81-.11-1.03.39Z"/>
        <path class="cls-1" d="M42.76,34.4l.12.53c-.06.23-.38.23-.41.36-.3,1.24.65,2.73-1.15,3.5l.42-.58-.21-.1c.19-.18.52-.28.58-.56.03-.13-.03-1.86-.06-2.06-.05-.28-.35-.58-.29-.82.1-.39.7-.51,1.01-.26Z"/>
        <path class="cls-1" d="M58.17,20c-.16.14-.18.57-.64.69-.99.24-1.14-1.2-.28-1.35.59-.1.65.54,1.16.22l1.41-1.8c.06.8-.48,1.45-1.06,1.94-.19.16-.51.22-.59.3ZM57.25,19.66l-.27.37.37.37c.28-.14.2-.8-.1-.73Z"/>
        <path class="cls-1" d="M63.39,32.69c-.39.51-1.81,1.62-2.04,2.11-.06.12-.17.66-.15.76.07.28.48.17.4.49l-.74-.16c-.26-.54-.14-1.01.21-1.47.19-.25,1.43-1.42,1.68-1.58.21-.13.38-.19.63-.16Z"/>
        <path class="cls-1" d="M48.23,43.02c1.59-.42.98,2.01-.28,1.18-.55-.37-.27-1.03.28-1.18Z"/>
        <path class="cls-1" d="M55.28,70.53c-.37,0-.88-.1-.99-.51-.3-1.09,2.05-1.23.99.51Z"/>
        <path class="cls-1" d="M44.55,3.7l.13.5c-.24-.17-.22-.48-.64-.27l-.52,1.42-.05-.95-.69.11c-.3-.33,1.24-1.33,1.76-.82Z"/>
        <path class="cls-1" d="M76.21,43.85v.3s-.52,0-.52,0c-.12.41.53.12.63.21-.06.62-.93.46-1.35.3-.19-.8.61-1.07,1.24-.82Z"/>
        <path class="cls-1" d="M52.25,43.1c-.2.03-.05-.21-.12-.3-.04-.06-.39-.09-.48-.05-.34.12-.07.9-.65.77-.47-1.09,1.32-1.89,1.26-.42Z"/>
        <path class="cls-1" d="M45.94,73.38c-.53-.4-.98-1.04-1.15-1.68.37.16.48.54.69.83s.57.39.47.85Z"/>
        <path class="cls-1" d="M15.4,26.91c.67.11,2.91,2.41,3.08,3.02.14.53-.14,1.41.14,1.86l3.22,3.2h9.84c.78-.9,3.52-3.02,3.65-4.13.15-1.29-.08-2.94-.05-4.27-.08-.2-.23-.33-.37-.47-.88-.88-2.32-1.79-3.09-2.69-.31-.36-.36-.85-.27-1.3.1-.53,2.38-2.52,2.89-3.1.29-.33.58-.7.85-1.05.21-1.38-.13-3.01.06-4.36.07-.48.36-.73.49-1.09.58-1.71.03-3.25-.08-4.91-.05-.73.07-1.44.07-2.16-.04-.16-.11-.3-.21-.42-.57-.69-1.94-1.47-2.38-2.25-.27-.5-.39-1.17-.42-1.74h.47c.08.95.4,1.56,1,2.26.85.99,1.87,1.32,2,2.73.16,1.72-.03,3.71.11,5.47-1.2,1.9-.26,4.34-.66,6.28-.05.25-.87,1.42-1.08,1.65-.61.69-1.94,1.57-2.41,2.32-.28.44-.24,1,.05,1.41.55.8,2.11,1.75,2.8,2.51.19.21.38.53.54.78-.03,1.05.15,2.08.13,3.13,0,.39-.06,1.3-.13,1.66-.19,1.06-2.98,3.12-3.73,4.05h-9.94c-.35-.07-1.04-.71-1.34-.98-.43-.38-2.44-2.34-2.52-2.74-.09-.51.11-1.3-.03-1.76-.09-.31-2.28-2.48-2.63-2.62l-1.87-.29c.56.07,1.3-.09,1.84,0Z"/>
        <path class="cls-1" d="M16.85,33.82l3.3,2.85c1.69,0,3.67-.25,5.35-.09.72.07,1.41.74,1.94,1.21,1.33,1.18,2.5,2.65,3.86,3.82l.24.07c.21-.21.4-.49.72-.53.94-.12,1.27,1.83-.31,1.37-.06-.02-.97-.7-1.09-.8-1.74-1.46-3.04-3.44-4.89-4.79-2.1-.21-4.31.21-6.37-.25l-3.08-2.8c-.27-.38-.04-.79-.03-1.14,0-.16-.09-.33-.09-.52,0-.58.26-1.33.06-1.96-.16-.53-1.38-1.26-1.74-1.73-1.44-.16-2.91-.22-4.37-.16-.89.03-1.9.45-2.73,0-.32-.17-1.21-.89-1.29-1.23-.19-.83.05-2.37.55-3.08.16-.23,1.3-1.33,1.53-1.42.71-.28,2.24.04,3.05,0,.7.39,1.29,1.36,1.97,1.72.24.12.38-.01.59.03.71.14.79,1.26-.08,1.26s-.62-.87-1.06-1.27c-.14-.12-.34-.14-.47-.26-.4-.37-.52-.95-1.07-1.13-.73-.24-1.86,0-2.65-.08-.22.04-1.7,1.4-1.82,1.65-.16.34-.22,2.34-.08,2.66l1.27.94,3.26.12c.86-.04,2.85-.33,3.58-.01.24.1,1.64,1.45,1.71,1.66l.26,3.89ZM14.18,25.32c.08-.05.18-.44-.05-.51-.73-.22-.47.84.05.51ZM31.98,41.64c-.29.46.42.87.68.52.39-.56-.48-.83-.68-.52Z"/>
        <path class="cls-1" d="M31.64,17.87c.34.33,1.58-1.07,1.66-1.34.23-.75-.07-2.81.02-3.77.01-.15,0-.3.08-.44l2.55-2.66c-.07,1.26-1.61,1.82-2.18,2.81l-.05,4.26c-.42.87-1.61.81-1.23,2.01-.04.16-.51.24-.53-.03l.31-.11c-.16,0-.33-.03-.46-.12-1.02-.68-.32-1.08-.51-2.01-.08-.4-.45-.66-.64-.99l-1.33-.77v.66s-.31.18-.31.18c-.14-.39.21-.7.22-.99,0-.18-.11-.4-.12-.63,0-1.07.18-3.14-.04-4.06-.04-.18-.11-.28-.21-.42-.4-.56-1.81-1.54-2.04-1.95s-.46-1.9-.44-2.41c.02-.42.18-.6.22-.94.06-.53-.41-1.51.21-1.63.11.73.42,1.54.86,2.14.37.51.97.9,1.33,1.4s.41,1.13.71,1.5c.27.33,1.3,1.01,1.46,1.38,0,1.93.18,3.91.06,5.84-.01.22-.19.45-.18.52,0,.07.6.69.6.95v1.63ZM26.91,4.31v2.37c0,1.04,2.28,2.11,2.5,2.97s-.03,2.85.02,3.87c.01.27.07.55.1.81l1.38.81-.16-6.09c-.34-.45-1.46-1.27-1.61-1.76-.32-1.04-.54-.91-1.23-1.71-.35-.4-.64-.86-1-1.26Z"/>
        <path class="cls-1" d="M26.16,19.63c.17-.09.52-.7.92-.7.26,0,.74.32.77.59.02.2-.17.3-.23.46-.08.19.13.32-.28.47.78,1.26-.28,3.1.95,4.1l-.21.05.21.47c-.21.5-1.27.55-1.37-.05l-.63.31c.08-.56-.11-1.75-.73-1.95-.58,0-1.19-.13-1.74-.16-.27-.02-.49.11-.73.11-.38,0-.82-.31-1.22-.31l.15-.2,3.43.14c.72.23.92.71,1.32,1.2.08.1.49.39.51.42.06.12-.1.3-.04.41.1.18.65.32.71-.06.08-.31-.52-.71-.6-1.05-.16-.7.06-2.69-.25-3.22-.05-.09-.68-.53-.79-.57-.26-.11-.54-.08-.76-.19-.47-.22-1.28-1.15-1.37-1.68-.04-.27.1-2.74.17-2.97.16-.53.8-.99,1.19-1.35.01-.76,0-1.53,0-2.29,0-.39.25-.55-.1-.94-.2-.23-1.38-1.27-1.63-1.42-.17-.1-.33-.18-.53-.2l-3.41-.07c-.26.19-.67.37-.88.59-.27.29-.29.8-.41.91-.03.02-.61.33-.65.34-.6.04-.8-.54-.69-1.05.19.05.09.39.18.6.05.1.15.27.29.24.25-.31.55-.56.17-.91l.09-.2c.72.08,1.1-.64,1.7-.82.46-.14,3.19-.15,3.71-.07.58.1,2.48,1.99,2.57,2.58.08.5.07,2.62-.16,2.98-.18.29-.9.77-.97,1.02.17.87-.58,2.68-.28,3.39.11.26,1.3,1.18,1.6,1.03ZM26.98,19.35c-.28.09-.24.63.09.63l.47-.37c-.14-.18-.32-.33-.56-.25Z"/>
        <path class="cls-1" d="M30.95,51.77c-2.33,2.3-4.67,4.62-7.03,6.9-.74,1.2.29,3.71-.35,5.12-.12.27-.96,1.03-1.23,1.29-.55.54-2.04,1.62-2.38,2.15-.16.25.19.63-.3.79.06-.33-.36-.15-.48-.31.17-.43-.2-.27-.26-.58-.21-1.02.99-.23,1.47-.74l2.93-2.75c.1-1.16-.06-2.39.02-3.55.11-1.56.6-1.94,1.68-2.95s2.34-2.04,3.42-3.1,2.02-2.24,3.15-3.26v-5.99s-3.67-3.58-3.67-3.58c-1.57-.77-3.25-.48-4.95-.52-1.23-.03-2.65-.29-3.88-.1-.92.14-1.45,1.58-2.32,1.68s-3.12.09-4,0c-.6-.06-1.24-.4-1.89-.43-1.02-.04-1.92.55-2.79-.15-.47-.38-1.76-1.96-2.11-2.11-.24-.11-.44.1-.66.06-.07-.01-.07-.16-.1-.17-.08-.04-.17.04-.29-.09-.67-.74.27-1.56,1-1.02.44.33.05.74.25,1.01.08.1.31.19.43.31.54.51,1.72,1.94,2.37,2.04.72.11,1.75-.02,2.52,0,1.74.06,3.5.18,5.25.11l2.1-1.48c1.93-.02,3.86.04,5.79,0,1.46-.03,1.49-.29,2.89.47.89.48,3.7,2.83,4.26,3.63.2.29.23.44.26.79.16,1.66-.12,3.57-.01,5.25-.08.51-.76.92-1.11,1.26ZM5.33,38.49c-.48.12-.28.86.27.71.51-.14.07-.8-.27-.71Z"/>
        <path class="cls-1" d="M29.79,29.47c.05-.07.34-.14.28-.24l-.52-.37c.2-.39.38-.55.84-.47l-.31.21c.31-.03.81.13.85.48.01.1-.01.18-.05.26-.07.13-1.79,1.48-1.95,1.52-.37.1-2.17.11-2.45-.05-.09-.05-.13-.23-.24-.3-1.51-.98-2.65-2.39-3.93-3.65-1.56-1.54-3.13-3.02-4.74-4.52-.26-.24-1.61-1.69-1.74-1.71-.12-.02-.32.09-.5.08-.76-.05-.8-1.28,0-1.47.6.05.9.52.82,1.09,2.76,2.61,5.34,5.46,8.11,8.06.52.49,2.05,2.03,2.63,2.1.36.04,1.66.05,1.97-.03.51-.13.7-.67.95-.99ZM15.55,19.67c-.08-.05-.33-.02-.42.03l-.1.48h.63s-.07-.49-.12-.51Z"/>
        <path class="cls-1" d="M27.44,40.58c-.2.05-.25-.11-.37-.21-.49-.4-.91-.94-1.34-1.4-2.4-.28-4.84-.31-7.26-.25-.77.3-1.95,1.75-2.66,1.86-.99.15-1.97-.09-2.94-.2-.4-.05-.83.05-1.23-.03-.47-.09-2.37-1.62-2.6-2.03-.29-.52-.21-1.51-.34-1.72-.03-.05-.54-.16-.66-.44-.64-1.41,1.93-1.48,1.5-.07-.07.23-.35.23-.4.65-.25,1.82,1.4,2.35,2.5,3.4h4.47s2.24-1.66,2.24-1.66c.83-.19,1.64,0,2.41,0,2.86.02,4.48-.67,6.47,1.73.1.12.25.17.21.37ZM8.7,35.44c-.11.03-.31.22-.28.35.89.72.99-.56.28-.35Z"/>
        <path class="cls-1" d="M33.75,53.3c.04.22-.1.24-.24.34-.36.24-.74.35-1.13.66-.85.68-1.76,1.79-2.57,2.58-.87.84-1.88,1.56-2.63,2.52l-.08,3.92c-.14.46-2.13,1.91-2.44,2.5-.39.74-.02,2.13-.19,2.96-.08.38-.43.6-.56.91-.08.2-.25,1.71-.57,1.47-.17-.5-.02-1.66.31-2.06.12-.15.84-.26.63-.78l-.21.11c-.24-.17.09-2.18.02-2.55.61-.69,1.27-1.32,1.92-1.97.26-.26.67-.38.77-.81.24-1.07-.18-2.69.08-3.81,1.65-1.49,3.19-3.26,4.89-4.68.31-.26.66-.56,1-.79.14-.1.9-.62,1-.52Z"/>
        <path class="cls-1" d="M20.4,42.16c.03.2-.14.3-.26.42-1.33,1.35-2.79,2.62-4.14,3.95-.82.81-1.56,1.74-2.43,2.51l-5.39.08-1.95,1.68c-.11.19.19.47.19.67,0,.5-.72.77-1.1.58l-.33-.69c0-.19.35-.53.52-.61.65-.28.37-.17.91-.66.5-.44,1.05-.84,1.55-1.29l5.39-.08c.51-.67,1.26-1.09,1.84-1.63,1.65-1.51,3.1-3.3,4.83-4.73.12-.1.17-.25.37-.21Z"/>
        <path class="cls-1" d="M14.48,43.44c1.12-.25,1.23,1.12.48,1.33-.29.08-.52-.15-.76-.04-.61.44-1.91,2.07-2.58,2.16l-5.45-.03c-.83-.58-1.33-1.61-2.19-2.12-.18-.11-.43-.07-.62-.22-.82-.68.91-1.46,1.31-.36.06.95,1.01,1.68,1.6,2.39,1.64-.14,3.53.32,5.13.13.21-.02.29-.05.47-.16.16-.1,1.84-1.66,1.9-1.78.24-.43-.11-1.12.7-1.3ZM15.03,44.26c.09-.47-.45-.58-.74-.26.09.45.4.28.74.26Z"/>
        <path class="cls-1" d="M25.02,48.73l-3.39,3.12c-1.4.68-3.2-.17-4.32.42-.74.39-2.29,1.95-2.97,2.61-.48.47-1.37,1.71-1.88,2.01-.17.1-.29.12-.48.1,1.34-1.48,2.78-3.08,4.37-4.31s2.32-.95,4.31-.95c.39,0,.47.22.88-.05.36-.23,1.57-1.46,1.94-1.85.22-.23.99-1.02,1.1-1.21.25-.44-.23-1.95.13-2.56h.41c.04.11-.1.22-.1.26v2.42Z"/>
        <path class="cls-1" d="M36.56,45.76c.22-.03.39-.1.55.13,0,.24-1.04.12-1.15.74-.18.98.07,2.08-.11,3.04l-.02,4.19-3.91,3.65c-.1.21-.13,3.84-.07,4.27.04.33.27.45.42.73-.36.29-.65.2-1.05.1-.27-.21.25-.54.31-.85.13-.7-.04-1.85,0-2.63.02-.4.1-1.57.24-1.86l3.74-3.41c-.05-.8.11-1.62.13-2.39.04-1.44-.26-3.17-.1-4.51.08-.67.31-1.11,1.02-1.19Z"/>
        <path class="cls-1" d="M18.26,17.06c.49.57.12,1.96.26,2.68l.3.12-.16-.53c.36.41.71.83,1.1,1.21.22.21.52.31.74.53.49.49.57,1.17.95,1.73l-.81-.45c-.24-1.51-2.27-1.8-2.53-3.31-.09-.54.08-1.22-.07-1.72-.07-.22-.77-.86-.97-.92-.24-.07-3.09-.07-3.32,0-.63.69-1.51,1.3-2.13,1.97-.34.37-.48,1.13-1.21.91-.81-.25-.68-1.47.38-1.33.32.04.44.32.78.17.51-.24,1.76-2.06,2.27-2.15l3.23.02,1.2,1.06ZM10.82,18.8l.07-.41-.58-.1v.53s.51-.01.51-.01Z"/>
        <path class="cls-1" d="M15.24,31.96c-.41.02-.28-.45-.4-.71-.6-1.3-.94-.74-1.97-.76-.5,0-1-.2-1.57-.11-.5.08-1.03.76-1.53.89-.93.25-2.29-.22-3.19.28-.26.14-1.51,1.28-1.65,1.51-.18.29.24.95-.41,1.16-.91.3-1.3-.82-.89-1.12.21-.15.62-.04.88-.15.24-.1.49-.61.69-.79.23-.21,1.29-1.04,1.52-1.11.78-.23,2.07.11,2.87-.07.45-.1,1.08-.73,1.61-.81.38-.06,2.83-.07,3.13.02.43.13.96,1.31.91,1.76ZM4.42,33.32l-.63.11.12.51h.61s-.11-.62-.11-.62Z"/>
        <path class="cls-1" d="M12.2,14.61l1.75-.52c.63.06,2.5.02,2.97-.28.45-.28.66-.8,1.31-1s1.38.03,1.96-.15c.15-.05,1.5-1.33,1.58-1.47.2-.36,0-.82.36-1.11.86-.69,1.72.69.94,1.15-.45.26-.71-.06-.98.06-.36.16-1.33,1.45-1.9,1.68-.43.17-1.07-.03-1.58.11-.59.16-1.29,1.05-1.67,1.17-.61.19-2.43.09-3.21.15-.49.04-1.03.18-1.53.21ZM23.12,10.31c-.04-.06-.51-.17-.63-.07l-.1.69c.38.16.95-.28.73-.62Z"/>
        <path class="cls-1" d="M36.87,33.67c.14.15.36.79.14.98-1.63.79-2.85,2.38-4.14,3.64-.38.06-.81.15-1.18.18-.14.01-.32-.09-.5-.08-.34.02-.47.38-.91-.08-.1-.1-.09-.26-.14-.32-.14-.15-.63-.31-.44-.56l.74.53c.29.03.44-.31.71-.3.57.03.69.76,1.47.37l3.29-3.13c.16-.26-.19-.4-.17-.67.03-.44.77-.95,1.13-.56Z"/>
        <path class="cls-1" d="M29.86,69.07c-.24,0-.04-.37.01-.46.19-.31,1.2-1.41,1.23-1.51.03-.09.14-1.31.13-1.45-.03-.71-1.44-1.44-1.74-2.26-.18-.5-.1-.91-.21-1.37s-.68-.8-.17-1.31c.35-.34.99-.12,1.04.34.03.33-.59.61-.49,1.55.16,1.44,1.77,1.89,1.88,2.85.04.37.05,1.5-.08,1.82-.22.54-1.42,1.17-1.6,1.81Z"/>
        <path class="cls-1" d="M20.6,59.92l-.16-.21c-.13.11-.23.19-.26.37-.22,1.15.41,2.32-.42,3.36-.55.69-2.53,2.12-2.79,2.68-.23.51.23,1.43-.37,1.79-.07-.42.08-.81.11-1.21.02-.23-.13-.48-.06-.68.21-.64,2.19-2.03,2.74-2.74.74-.96.16-2.16.37-3.21.07-.35.42-.34.42-.42-.24-.17-.43-.12-.63.05-.04-1.04,1.55-.76,1.05.21Z"/>
        <path class="cls-1" d="M11.33,33.66c-.15-.09-3.25-.07-3.48,0-.71.47-1.23,1.21-1.8,1.77-.2.19-1.07,1.03-1.22,1.1-.23.11-.49.05-.73.05l.69-.31c.64-.69,1.3-1.48,1.99-2.11.22-.2.76-.68,1-.79.62-.27,2.57.1,3.41-.05.24-.05.44-.3.68-.37.95-.26,1.42.58.69,1.22-.17.11-.67,0-.87-.09-.27-.13-.3-.39-.36-.42ZM12.41,33.32c-.16-.03-.69-.03-.63.26.16.23.35.3.63.26v-.53Z"/>
        <path class="cls-1" d="M22.92,53.61c1.06-1.65,2.45-3.05,3.84-4.42.09-.2.1-1.28.05-1.52-.05-.28-.34-.37-.44-.61-.45-1.04.97-1.53,1.32-.79.3.65-.42,1-.53,1.52-.1.49.07,1.01-.08,1.5-1.31,1.31-2.51,2.76-3.79,4.09-.11.11-.15.27-.36.22ZM27.43,46.37c-.23-.33-.89.05-.61.5.21.33.84-.17.61-.5Z"/>
        <path class="cls-1" d="M23.55,22.71l-.11-.31-.21.21-.19-3.23c-.58-.98-2.49-1.88-2.54-3.04-.01-.28.12-.54.11-.83-.03-.52-.14-1.16-.22-1.68.31.07.46.7.5.97.08.57-.09,1.4.11,1.89.26.65,2.55,2.21,2.55,2.81v3.21Z"/>
        <path class="cls-1" d="M24.5,26.07h-.42s.01-.67.01-.67c.17-.51,1.86-.1,1.97.32.09.35-.21.6.22,1.14.06.08.76.65.81.67.22.06.41-.19.62-.2.54-.04,1.05,1.07.15,1.33-.68.19-1.49-1.5-2.15-1.75-.28-.33-.52-1.42-.96-1.47-.6-.06-.19.57-.26.63Z"/>
        <path class="cls-1" d="M16.27,35.77c.41.33.22,1.19-.24,1.2-.04,0-.75-.12-.78-.14-.06-.04-.05-.2-.18-.25-.29-.11-2.39-.18-2.56-.06l-.1.37c-.44-.08-1.31.46-1.04-.47l-.21.05c-.08-.38.27-.42.47-.63l.05.21,2.68.21c.17-.08.68-.06.77-.12.11-.07-.03-.41.41-.49.24-.04.53-.05.74.11Z"/>
        <path class="cls-1" d="M27.79,70.82s.18,0,.17.08l-.47.58-.16-.21-.16.42-.26-.1c.16-.19-.02-.47.05-.63.05-.11.26-.19.32-.32.17-.36-.05-.73-.06-1.1,0-.39.08-1.73-.05-1.95-.07-.12-.34-.16-.42-.31-.32-.64.52-1.41,1.11-.8s-.14.81-.22,1.37c-.06.45-.05,2.68.15,2.97Z"/>
        <path class="cls-1" d="M12.17,62.32c-.74.52-1.52-.65-.76-1.13l.21.21c1.11-.76,2.21-1.64,2.27-3.1.02-.62-.29-.94.05-1.42.14.06.26,1.03.26,1.21,0,.21-.1,1.27-.15,1.43-.12.39-.99.98-1.26,1.37s-.47.99-.61,1.44Z"/>
        <path class="cls-1" d="M34.48,44.36c-.23.35-.56.79-.62,1.21-.07.49.1.83.1,1.25.02,1.64.19,4.46-.13,5.97-.03.15-.13.35-.29.39-.09-.48.09-.96.11-1.41.07-2.01-.27-4.74,0-6.62.08-.52.32-.71.83-.8Z"/>
        <path class="cls-1" d="M34.8,61.08c-.1.42-.38.63-.42,1.1-.03.4.1.69.11,1.05.02,1.15,0,2.3-.03,3.45l-2.29,2.28c.12-1.07,1.4-1.64,1.97-2.49.24-1.37-.37-4,.32-5.15.08-.14.13-.28.34-.24Z"/>
        <path class="cls-1" d="M24.06,45.22l.12.46-.21-.05.11.32c-.16.11-.53-.04-.61.01-.15.09.04.44-.44.14-.31.15-.32.52-.46.69-.47.56-2.2,1.93-2.42,2.32s-.03,1.01-.93,1.03l-.65-.51c.03-1.06.97-.55,1.48-.84l3.11-2.89c-.01-.56.41-.75.92-.67ZM19.53,49.7c.3-.3.05-.57-.34-.5-.54.09-.06.9.34.5Z"/>
        <path class="cls-1" d="M17.45,62.6c-.11.82-.86,1.41-1.48,1.88-.15.11-.32.28-.52.27.41-.59,1.34-1.18,1.53-1.89.23-.87,0-2.47.15-3.53.03-.19.17-.13.21-.23.07-.17-.07-.49.22-.55.08.17-.1.39-.1.47,0,1.06.13,2.58,0,3.57Z"/>
        <path class="cls-1" d="M11.08,27.5c.1.12.35.16.38.35-.51.09-1.02-.36-1.31-.74-.12-.16-.11-.38-.19-.49-.2-.27-.9-.43-.43-1.07.81-1.12,2.18.43.89,1.1.28.23.43.6.67.86ZM10.62,26.07c.3-.3-.98-1.1-.63.11l.63-.11Z"/>
        <path class="cls-1" d="M11.25,50.15l-.94.91c.76,1.07-.09.99-.96,1.14-.19-.29-.43-.58-.15-.89.06-.07,1.42-.95,1.59-1.04.15-.08.28-.15.46-.12Z"/>
        <path class="cls-1" d="M22.92,56.66l-.42.11.11.21c-1.01.22-1.96-.11-2.97.03l-1.81,1.55c-.26-.21-.17-.23,0-.42.1-.11,1.22-1.14,1.32-1.2s.6-.27.68-.27h3.1Z"/>
        <path class="cls-1" d="M9.67,58.14c-.85.87-1.11-.93-.45-1.14s.56.3.95.38c.41.08.97.05,1.4.13-.22.36-.82.11-1.15.26-.2.09-.31.43-.48.58l-.07-.19-.19-.02c.24-.35-.21-.6-.53-.63l.04.53.48.1Z"/>
        <path class="cls-1" d="M23.24,31.96v-.41c-1.57-.16-.48-2.22.48-1.17.57.63,0,1.12-.48,1.58ZM23.2,30.5c-.52.04-.42.62-.02.62.45,0,.43-.65.02-.62Z"/>
        <path class="cls-1" d="M34.67,8.33c.37.38-.1,1.02-.55,1.03-.65.02-.38-.29-.44-.43-.05-.12-.39-.58-.36-.63.46-.24.93-.4,1.34.02Z"/>
        <path class="cls-1" d="M21.97,53.82l-3.26.47-1.47,1.11c-.11-.13.86-1.04,1.01-1.14.21-.13,1.14-.44,1.35-.44h2.37Z"/>
        <path class="cls-1" d="M32.28,69.07v2.79l-.21.79c-.03-.96-.16-1.92-.11-2.9.01-.22-.02-.75.32-.68Z"/>
        <path class="cls-1" d="M35.09,58.43l-.24.23c-.07-.25-.54-.29-.58-.32-.03-.02.17-.56-.21-.62.02.39-.37.97.21,1.05.11.37-.44.18-.53.03-.66-1.05,1.3-1.83,1.35-.37Z"/>
        <path class="cls-1" d="M29.75,71.38c-.3.05-.17-.06-.22-.24-.07-.25-.11-.5-.1-.76l.33-.67v1.68Z"/>
      </g>
    </g>
  </g>
</svg>