<?xml version="1.0" encoding="UTF-8"?>
<svg id="Layer_1" data-name="Layer 1" xmlns="http://www.w3.org/2000/svg" viewBox="0 0 673.6 879.03">
  <defs>
    <style>
      .cls-1 {
        fill: #f8f;
      }

      .cls-2 {
        fill: #ffd7ff;
      }

      .cls-3 {
        fill: #fff;
      }

      .cls-4 {
        fill: #c9ff6b;
      }

      .cls-5 {
        fill: #ffafff;
      }
    </style>
  </defs>
  <polygon class="cls-4" points="568.47 361.06 555.99 366.96 555.99 514.03 590.48 503.04 608.99 430.96 594.46 377.05 568.47 361.06"/>
  <polygon class="cls-4" points="106.99 362.96 68.28 406.03 67.11 464.02 81.66 504.05 106.99 519.25 118.99 513.96 114.46 362.96 106.99 362.96"/>
  <g id="JA2kEG">
    <g>
      <path d="M1.97,879.03c-3.1-1-1.71-15.37-1.38-18.38,10.9-98.84,94.43-122.63,176.66-145.34,4.99-1.38,19.11-3.34,22.16-5.84,4.95-4.07,2.82-30.38,2.58-37.46-8.42-4.09-17.29-6.98-25.54-11.46-37.03-20.13-56.84-58.41-62.84-99.16-1.69-11.45-1.42-23.12-3.62-34.38-26.88-3.76-42.09-23.22-47.22-48.78-6.84-34-7.43-103.16,29.66-120.75,6.5-3.08,12.2-2.85,18.51-5.49,2.53-12.86,4.11-25.89,7.4-38.6,15.32-59.24,56.66-102.07,117.1-115.9,9.05-2.07,33.47-3.52,38.72-9.77,2-2.38,3.53-6.86,6.29-10.22,6.24-7.58,18.45-16.11,27.75-19.25,5.37-1.82,10.81-1.8,15.82-4.18l.27-56.34c-4.79-4.79-11.93-5.88-17.72-10.28-30.24-22.99-19.06-76.7,18.06-85.77,57.64-14.08,85.59,64.58,35.25,91.25-3.03,1.6-7.57,1.01-9.2,4.8l.7,56.7c14.32,2.66,29.65,9.83,40.1,20.11,7.54,7.43,8.03,15.51,19.76,18.24,32.08,7.46,47.79,7.19,77.55,25.45,45.66,28.02,67.95,79.97,73.18,131.82,1.22,2.5,9.28,2.74,12.29,3.71,25.2,8.06,35,28.31,38.95,53.05,5.44,34.08,5.22,99.81-32.72,115.73-3.75,1.57-15.55,3.14-16.94,5.06-1.66,8.34-1.17,17.2-2.19,25.81-5.07,42.75-22.8,85.45-62.2,106.8-5.22,2.83-24.2,8.97-26.11,11.89-4.22,6.48.34,25.95-.12,33.99,2.11,6.89,19.81,8.25,26.77,10.23,76.06,21.67,155.57,43.02,171.49,132.51,1.57,8.81,4.67,22.82-.21,30.21H1.97ZM343.47,19.04c-3.89-.35-8.58-.52-12.41.08-1.61.25-5.92,1.16-6.58,2.9h9s-1.02-1.98-1.02-1.98c2.67.04,4.66-1.06,5.5,1.99l5.5-2.99ZM358.48,61.02c-1.06-2.75.69-5.11-2.51-6.99l.5,3.99c-4.39,1.01-4.6-4.55-9.07-.33l1.08,7.33,2.13-3.86,7.86-.15ZM350.47,76.02l-2.99-3.98-.11,3.89c-3.97.59-8.81,2.15-12.79,1.54-2.27-.35-1.49,1.25-1.1,1.56l16.99-3.01ZM377.47,189.02c-4.64-6.77-11.32-10.95-19.04-13.45-19.97-6.48-50.27-5.55-61.96,14.45,9.67-2.87,19.6-1.71,29.54-1.95,14.87-.36,29.98-.74,45-.09,2.32.1,4.21,1.02,6.46,1.03ZM500.88,253.62c-48.04-48.8-117.68-47.77-181.92-45.6-40.74,1.38-81.13,2.49-117.16,23.84-56.62,33.54-68.5,87.33-71.37,149.63-2.37,51.52-2.56,110.9,2.05,162.03,8.92,99.06,76.84,119.58,164.45,122.55,51.37,1.74,141.33,3.77,186.21-20.87,62.86-34.51,60.03-111.54,61.29-173.71,1.35-66.88,6.5-167.03-43.55-217.87ZM570.47,372.04l-5.99-1.01,1,131.99c1.74.23.94-2.27.99-3.48.16-3.93-.8-11.83-.01-14.86.26-1.01,1.93-.25,2.03-1.15l-2-.49v-23s4.5,3.98,4.5,3.98c3.27-6.88,6.99-1.4,12.5-2.99.67-3.76-1.94-.7-3.06-1.46l-1.94-3.04,2.99-2.49h-6.98c.58,3.74-.63,5.79-3.51,7.98l-1.51-3.99-2.98,1.01.02-40.39,1.99-1.11-2.03-1.13.03-3.37,2.99.99-1.01-3.99-1.98,1.99c.82-11.89-.93-24.81-.49-36.52.17-4.55,3.08-.9,4.48-3.47ZM108.46,485.02l.88-111.33-2.32-1.67-6.56,2.51,7-.5v5.49s-2.99-.49-2.99-.49c.09,1.63,2.71,1.4,3.02,2.7,1.57,6.48-1.2,19.07-.03,26.3-.17.3-5.97-2.72-6,1.49l4.52,1.51,1.48-1.99-1.93,8.56c2.63,1.42,2.52,13.48,1.89,16.89-.38,2.03-2,3.37-2.92,5.1l1.97,1.94-3,1.52c6.21,3.77,3.16,11.46,3.99,17.98l-1.48-1.99c-2.14,1.32-.49,2.87-.49,4.99l1.98-1.99c1.51,4.64-4.49,6.16-5,9.49l5.03,2.22c.11,2.59-.1,5.2-.02,7.8.04,1.2-.74,3.72.99,3.48ZM571.72,391.34c.87-1.35,6.83-2.63,2.16-6.2l-4.41.9,1.77,3.5-2.77,3.48,2.99,1.02c0-.85-.2-1.98.26-2.69ZM594.46,412.03c-.24-3.18-.84-6.49-1.53-9.58-.35-1.56-.93-5.76-2.45-6.41.74,4.91.23,12.42,3.98,16ZM83.25,412.8c.16-.31-.47-6.64-1.77-6.77-2.83,19.17-2.5,38.71-1,57.99l1-4.99,1,3.99c4.28-2.75-2.15-5.83-1.05-10.37.28-1.15,2.47.03,2.04-1.62l-3.01-.02c.57-8.11-.44-16.39-.04-24.55.19-3.88,1.47-11.05,2.83-13.67ZM594.47,422.53c.75,4.16-.55,10.09,0,14.5l-2.99-1v4.99s1-2,1-2l2.05,4.42-2.07,1.08c4.81,1.42.77,6.99.48,9.96-.13,1.29.69,2.95.46,4.87-.73,6.06-2.27,12.08-2.94,18.16,1.19,1.62,1.12-.9,1.31-1.67,4.9-19.92,5.78-42.6,2.69-62.81-2.68,1,1.13,6.72-2.98,6.01v.97c1.38-.25,2.76,1.26,2.99,2.51ZM95.38,423.12c-4.28-2.45-2.52,1.1-4.41,1.91-3.18,1.37-1.56-2.94-4.5-1.99v4.99c2.79-2.93,5.51-.39,8.96-2.06l-.05-2.85ZM95.48,437.02l-1.01-1.5-1,2.5c6.46-.91,1.51,5.84,4.99,8-1.24-4.92,2.33-6.81,3.01-10.99-1.39.13-3.06-.33-4.35-.03-1.18.27,0,2.45-1.64,2.01ZM109.47,506.03l-1.02-17.5-.98-2.49c.61,3.56-.26,3.91-3.01,5.5l1.99,2.49,1-2.99.08,8.45-3.07.55,1.99,2.98-2.45,1.94-8.53-3.42c3.5,4.07,8.93,4.88,14,4.5ZM450.47,700.03l-20.87,15.63c-14.91,9.24-30.36,17.97-46.88,24.12-44.64,16.61-93.37,16.76-140.26,13.75,39.03,22.82,91.12,25.98,135.22,19.21,28.6-4.39,72.79-18.18,72.79-54.21v-18.5ZM20.47,878.03h634c-2.56-22.38-6.09-45.4-17.2-65.3-21.05-37.7-72.53-55.65-111.59-68.41-12.15-3.97-31.14-10.88-43.16-12.83-15.02-2.44-12.53,11.09-19.03,21.07-10.6,16.28-40.4,31.14-58.81,36.19-53.34,14.63-168.42,13.9-198.4-43.03-2.73-5.18-3.02-13.91-10.29-15.21-30.34,7.94-61.59,16.89-90.5,29.06-47.54,20.01-74.01,43.34-82.74,96.26-.5,3.02-3.19,21.31-2.29,22.21Z"/>
      <path class="cls-2" d="M500.88,253.62c50.05,50.84,44.9,150.99,43.55,217.87-1.26,62.17,1.57,139.2-61.29,173.71-44.89,24.64-134.84,22.61-186.21,20.87-87.62-2.97-155.53-23.49-164.45-122.55-4.61-51.13-4.42-110.51-2.05-162.03,2.87-62.3,14.75-116.09,71.37-149.63,36.03-21.35,76.42-22.46,117.16-23.84,64.24-2.17,133.88-3.2,181.92,45.6ZM161.82,348.38c-36.68,38.45-28.27,106.15,17.98,132.82,72.47,41.79,156.3-30.18,123.53-107.53-24.05-56.77-98.79-70.07-141.51-25.29ZM511.88,348.62c-63.29-64.51-168.63-5.91-145.69,81.19,15.01,57.01,80.52,80.47,130.2,49.64,44.54-27.64,52.09-93.52,15.49-130.83ZM252.02,545.47c-5.51-5.48-7.84-12.73-15.33-15.16-17.45-5.64-21.99,12.2-12.63,24.63,33.76,44.84,137.96,49.36,185.09,28.26,14.18-6.35,54.68-31.16,41.17-50.52-4.32-6.2-15.29-4.47-20.39.3-5.45,5.1-9.73,13.05-16.44,18.56-34.73,28.48-129.63,25.59-161.46-6.07Z"/>
      <path class="cls-1" d="M20.47,878.03c-.9-.9,1.79-19.19,2.29-22.21,8.73-52.92,35.2-76.25,82.74-96.26,28.91-12.17,60.16-21.12,90.5-29.06,7.27,1.3,7.56,10.03,10.29,15.21,29.98,56.93,145.06,57.66,198.4,43.03,18.41-5.05,48.21-19.91,58.81-36.19,6.5-9.98,4.01-23.51,19.03-21.07,12.02,1.95,31,8.86,43.16,12.83,39.06,12.77,90.53,30.71,111.59,68.41,11.11,19.9,14.64,42.92,17.2,65.3H20.47Z"/>
      <path class="cls-5" d="M450.47,700.03v18.5c0,36.02-44.19,49.82-72.79,54.21-44.1,6.77-96.19,3.61-135.22-19.21,46.88,3.01,95.62,2.85,140.26-13.75,16.52-6.15,31.97-14.87,46.88-24.12l20.87-15.63Z"/>
      <path class="cls-4" d="M377.47,189.02c-2.24-.02-4.13-.93-6.46-1.03-15.02-.66-30.13-.27-45,.09-9.94.24-19.87-.92-29.54,1.95,11.69-20,41.99-20.93,61.96-14.45,7.72,2.5,14.4,6.68,19.04,13.45Z"/>
      <path class="cls-4" d="M358.48,61.02l-7.86.15-2.13,3.86-1.08-7.33c4.46-4.22,4.68,1.34,9.07.33l-.5-3.99c3.2,1.88,1.45,4.23,2.51,6.99Z"/>
      <path class="cls-4" d="M343.47,19.04l-5.5,2.99c-.84-3.05-2.83-1.95-5.5-1.99l1.02,1.98h-9c.66-1.74,4.97-2.65,6.58-2.9,3.84-.6,8.52-.43,12.41-.08Z"/>
      <path class="cls-4" d="M350.47,76.02l-16.99,3.01c-.4-.31-1.18-1.91,1.1-1.56,3.98.61,8.82-.95,12.79-1.54l.11-3.89,2.99,3.98Z"/>
      <path d="M511.88,348.62c36.6,37.31,29.05,103.19-15.49,130.83-49.68,30.83-115.19,7.37-130.2-49.64-22.93-87.1,82.4-145.7,145.69-81.19ZM446.27,338.33c-78.19,5.22-89.29,111.91-17.56,133.96,52.93,16.27,100.11-29.81,86.89-82.89-7.74-31.07-37.01-53.22-69.33-51.07Z"/>
      <path d="M161.82,348.38c42.71-44.78,117.46-31.48,141.51,25.29,32.77,77.35-51.06,149.32-123.53,107.53-46.25-26.67-54.66-94.37-17.98-132.82ZM219.27,339.33c-90.1,7.82-80.09,144.3,11.68,136.68,86.52-7.18,80.85-144.72-11.68-136.68Z"/>
      <path d="M252.02,545.47c31.83,31.66,126.74,34.55,161.46,6.07,6.72-5.51,10.99-13.46,16.44-18.56,5.1-4.77,16.07-6.5,20.39-.3,13.51,19.36-27,44.17-41.17,50.52-47.13,21.1-151.33,16.58-185.09-28.26-9.35-12.43-4.82-30.27,12.63-24.63,7.49,2.42,9.82,9.68,15.33,15.16Z"/>
      <path class="cls-3" d="M446.27,338.33c32.32-2.16,61.59,19.99,69.33,51.07,13.22,53.08-33.96,99.16-86.89,82.89-71.74-22.05-60.63-128.73,17.56-133.96ZM481.89,440.45c50.59-49.32-36.89-115.81-71.94-57.44-28.89,48.12,34.71,93.73,71.94,57.44Z"/>
      <path class="cls-3" d="M219.27,339.33c92.53-8.03,98.21,129.51,11.68,136.68-91.78,7.61-101.79-128.86-11.68-136.68ZM220.27,361.33c-65.63,6.37-49.35,106.15,15.23,91.23,54.75-12.65,42.01-96.79-15.23-91.23Z"/>
      <path d="M481.89,440.45c-37.23,36.3-100.83-9.32-71.94-57.44,35.05-58.38,122.53,8.11,71.94,57.44Z"/>
      <path d="M220.27,361.33c57.25-5.56,69.99,78.59,15.23,91.23-64.58,14.92-80.86-84.86-15.23-91.23Z"/>
    </g>
  </g>
</svg>