<?xml version="1.0" encoding="UTF-8"?>
<svg id="Layer_1" data-name="Layer 1" xmlns="http://www.w3.org/2000/svg" viewBox="0 0 412.77 359.46">
  <defs>
    <style>
      .cls-1 {
        fill: #3596e5;
      }

      .cls-2 {
        fill: #1dd000;
      }

      .cls-3 {
        fill: #a20015;
      }

      .cls-4 {
        fill: #f9ff17;
      }
    </style>
  </defs>
  <g>
    <path d="M343.08,114.57c5.68-3.01,10.93-6.83,16.05-10.71,8.69-6.59,22.74-22.06,33.13-22.92,5.51-.46,17.33,1.56,15.4,9.11-1.14,4.45-41.34,17.74-44.48,27.88,2.04,10.95,9.12,43.11,21.89,44.99,3.45.51,10.03-4.33,12.79-6.62,3.24-2.69,9.34-11.57,11.17-12.49,1.86-.94,3.69.3,3.73,1.26.02.6-4.79,9.01-5.67,10.49-7.89,13.3-25.42,32.86-42.48,24-15.36-7.97-18.61-48.34-24.67-51.29-2.11-1.02-1.97,1.46-2.42,2.48-5.47,12.45-8.38,32.41-14.12,43.21-5.32,10.01-24.36,10.16-24.77,2.11-.35-6.98,7.11-23.18,9.57-30.36-3.23-.82-2.19,1.1-3.24,2.32-8.08,9.35-13.75,18.23-24.26,25.57-22.25,15.54-42.66,12.09-43.48-17.94-11.83,11.55-27.25,30.49-46.1,25.56-12.69-3.32-10.35-20.68-8.69-30.54l-10.56,13.71c-38.17,38.93-71.66,7.11-48.18-39.47,13.27-26.34,51.48-58.93,80.72-37.84,6.89-5.17,17.74-10.42,23.91-1.52,1.5,5.11-14.61,39.79-17.26,48.28-4.03,12.9-12.68,41.19,10.58,23.03,25.82-20.17,28.3-55.6,39.23-85.29,7.53-20.46,18.11-48.17,39.43-57.69,11.64-5.2,28.02-7.99,29.16,9.11,1.55,23.43-27.38,69.27-43.63,85.99-3.45,3.55-15.55,12.2-16.79,14.34-1.76,3.03-5.13,19.08-5.49,23.13-2.46,26.97,18.21,14.67,29.12,2.98,33.13-35.47,43.4-87.66,59.73-132.03,4.31-8.83,27.34-11.7,25.51,1.78l-34.82,95.37ZM275.84,104.61c16.24-17.78,32.52-42.43,39.48-65.72,2.01-6.72,6.41-21.06-5.82-13.28-12.94,8.23-30.26,57.1-33.11,72.72-.38,2.1-.8,4.14-.55,6.29ZM185.92,91.17c-14.54,1.13-27.14,19.57-33.57,31.28-5.44,9.9-22.34,43.26.71,40.6,17.24-2,42.66-48.12,43.15-64.11.19-6.14-4.51-8.21-10.28-7.76Z"/>
    <path d="M131.71,31.43c-21.39,38.49-25.77,84.26-49.12,122.12-14.08,22.83-37.85,41.55-66.09,30.46-4.86-1.91-20.3-14.6-11.44-17.14.94-.27,13.04,5.85,17.56,6.14,36.29,2.34,50.7-66.36,60.52-92.37,7.43-19.69,15.4-43.13,35.81-52.61-31.9-12.21-95-7.33-93.48,38.61.23,6.98,5.38,11.59,4.37,18.06C.55,85.58-6.88,60.6,6.23,37.35,25.22,3.68,73.95,1.66,108.35,3.76c28.2,1.72,82.65,20.54,105.65,4.76C217.07,6.41,221.11,0,221.68,0c7.68.02-.02,11.83-1.91,14.3-14.28,18.7-42.26,20.69-64.08,19.32-4.46-.28-21.78-4.46-23.97-2.19Z"/>
    <path class="cls-2" d="M185.92,91.17c5.78-.45,10.47,1.63,10.28,7.76-.48,15.99-25.9,62.12-43.15,64.11-23.04,2.67-6.14-30.7-.71-40.6,6.43-11.72,19.03-30.15,33.57-31.28Z"/>
    <path class="cls-3" d="M275.84,104.61c-.25-2.15.17-4.19.55-6.29,2.85-15.61,20.18-64.49,33.11-72.72,12.23-7.78,7.82,6.56,5.82,13.28-6.96,23.29-23.24,47.94-39.48,65.72Z"/>
  </g>
  <g>
    <path d="M295.37,189.66c10.06,9.32-1.61,36.23-6.51,46.89-8.01,17.43-21.24,36.38-34.17,50.51-3.53,3.86-13.03,10.69-14.81,13.83-4.75,8.39-11.41,43.84,6.96,38.08,29-9.09,50.63-71.66,60.13-97.99,4.52-12.53,9.2-34.59,14.67-45.1,4.77-9.17,17.63-11.2,25.8-5.37l.32,6.57-34.58,93.05c3.56,3,32.01-23.66,36.22-26.65,6.65-4.74,14.21-7.92,22.67-5.45,2.18.64,6.35,5.14,5.72,7.58-1.5,5.85-40.89,17.97-44.41,29.04,2.38,10.26,9.29,42.82,21.47,44.14,6.23.68,9.95-2.03,14.77-5.28,1.19-.8,7.72-8.53,8.31-4.12.81,6.01-17.93,23.59-23.66,26.13-32.96,14.6-32.07-32.26-42.97-50.47l-3.12.88-15.89,47.38c-3.18,5.81-17.78,7.58-21.54,2.3-4.31-6.07,6.17-25.69,7.54-33.09-15.28,23.55-62.54,63.63-68.48,11.21-15.48,23.25-59.37,43.77-51.05-3.73-9.62,11.5-19.97,27.51-36.75,28.63-25.59,1.71-27.24-24.84-21.09-43.53,9.4-28.57,39.89-63.11,73.12-57.04,3.17.58,7.86,4.37,8.99,4.3.85-.05,3.35-2.48,5.25-3.09,6.01-1.92,11.26-2.55,15.74,2.53.95,2.24.78,3.68.32,5.97-3.77,18.74-18.59,39.51-20.52,60.5-1.18,12.8.42,14.44,10.4,6.67,22.49-17.5,22.15-40.5,29.92-65.96,7.84-25.72,21.44-70.4,49.54-79.96,6-2.04,16.56-4.09,21.67.65ZM245.96,281.42c15.86-16.91,30-39.27,37.68-61.3,2.86-8.19,9.84-29.75-6.86-15.92-15.12,12.52-27.18,57.84-30.82,77.22ZM162.18,269.26c-11.44,2.42-27.41,24.69-32.25,34.98-3.4,7.23-15.11,38.68,1.79,35.52,9.33-1.75,26.68-26.2,31.45-34.65,3.53-6.25,14.19-27.62,11.21-33.64-2.35-3.46-8.41-3-12.2-2.2Z"/>
    <path d="M159.65,190.92c6.08,5.48.72,16.25-5.38,19.37-9.64,4.92-21.21-3.4-28.34-2.03-6.07,1.17-16.61,30.23-19.12,36.74-5.81,15.07-11.36,31.61-16.53,46.98-6.93,20.64-14.97,41.23-18,62.93-4.85,4.48-24.61,5.9-26.61-.91-1.7-5.78,17.45-60.85,20.96-70.74,9.57-27.01,18.49-59.05,41.11-77.79-21.64-3.72-55.34-1.14-62.88,23.64-1.76,5.78-.38,14.68-7.47,15.06-6.48.35-12.01-4.54-12.99-10.78-5.55-35.42,47.9-48.84,73.95-50.4,11.16-.67,53.67,1.05,61.3,7.92Z"/>
    <path class="cls-1" d="M162.18,269.26c3.79-.8,9.85-1.26,12.2,2.2,2.98,6.03-7.68,27.39-11.21,33.64-4.77,8.45-22.12,32.9-31.45,34.65-16.9,3.17-5.19-28.29-1.79-35.52,4.84-10.29,20.81-32.56,32.25-34.98Z"/>
    <path class="cls-4" d="M245.96,281.42c3.65-19.38,15.71-64.7,30.82-77.22,16.7-13.83,9.71,7.73,6.86,15.92-7.68,22.02-21.82,44.39-37.68,61.3Z"/>
  </g>
</svg>