<?xml version="1.0" encoding="UTF-8"?>
<svg id="Layer_2" data-name="Layer 2" xmlns="http://www.w3.org/2000/svg" viewBox="0 0 67.61 72.34">
  <defs>
    <style>
      .cls-1 {
        fill: #3596e5;
      }

      .cls-2 {
        fill: #1dd000;
      }

      .cls-3 {
        fill: #a20015;
      }

      .cls-4 {
        fill: #f9ff17;
      }
    </style>
  </defs>
  <path d="M30.04,31.22c1.59.26,3.25-.11,4.85.11,3.3.45,2.22,2.34,5.62-.48.85-.7,6.31-5.62,6.48-6.03.35-.84-.65-2.51-.66-3.65-.04-7.55,10.48-10.93,15.07-4.73,5.33,7.2-3.03,16.53-10.63,11.9l-9.11,8.25c1.42,2.7,1.09,6.46-.39,9.13l11.53,9.92c3.48-1.04,5.92-1.9,9.34.1,8.58,5.02,1.72,19.72-8.62,14.65-4.52-2.22-4.51-6.67-3.94-11.1-1.73-1.27-10.8-9.91-12-9.84-.56.03-1.8.94-2.76,1.11-3.21.57-5.44-.42-8.09-2.06l-9.92,8.62c3.22,6.04-1.28,13.07-8.15,12.5-8.13-.68-10.75-11.57-3.81-15.87,4.13-2.55,8.19-.03,8.76-.28,2.9-1.29,7.01-7.46,10.29-8.9-.87-3.82-.78-7.62,2.12-10.55l-8.32-16.52c-.86-.77-3.22-.27-4.84-.76-5.24-1.6-7.16-8.07-4.18-12.55,5.6-8.44,19.02-1.78,14.62,8.59-.45,1.06-1.63,1.58-1.46,2.69l8.2,15.75Z"/>
  <circle class="cls-3" cx="15.5" cy="9.04" r="9.04"/>
  <circle class="cls-1" cx="54.69" cy="20.67" r="9.04"/>
  <circle class="cls-4" cx="58.56" cy="63.3" r="9.04"/>
  <circle class="cls-2" cx="9.04" cy="60.72" r="9.04"/>
</svg>