<?xml version="1.0" encoding="UTF-8"?>
<svg xmlns="http://www.w3.org/2000/svg" viewBox="0 0 108.38 105.89">
  <defs>
    <style>
      .cls-1 {
        fill: #eaeaea;
      }

      .cls-2 {
        fill: #e5ecd2;
      }

      .cls-3 {
        fill: #cce5f0;
      }

      .cls-4 {
        fill: #d7dee2;
      }

      .cls-5 {
        fill: #ccffd9;
      }
    </style>
  </defs>
  <g id="Layer_2" data-name="Layer 2">
    <path class="cls-4" d="M33.3,66.77l-18.42,9.05-5.63,2.07-4.59,5.79L.67,102.68v2.12s28.7,2.12,40.35,0,51.67-.85,56.66.51,10.49-.14,10.49-.14l-2-14-4-9-4-4-13-6-9.48-5.41h-1.73l-.77,4.06-8.02,4.35-7.19,1.77-7.51-.38-7.3-1.39-7.22-3.12-2.65-5.29Z"/>
  </g>
  <g id="Layer_1" data-name="Layer 1">
    <g id="jxdD10">
      <g>
        <path d="M69.17,5.4c1.91,1.62,3.65,3.88,4.56,6.24,1.81,4.71,1.05,9.8,1.09,14.73.94-.8,2.75-.86,3.57.14,1.72,2.12.61,8.33-.26,10.77-.8,2.27-2.24,4.83-4.86,5.19-.35,2.32-.27,5.04-1.25,7.2-.32.72-.85,1.13-.96,2.01-.13,1.13.06,2.47,0,3.62,1.2.85,2.73,1.47,3.11,3.06.41,1.74-.05,3.53.11,5.31.05.6.23,2.25.65,2.61.71.6,3.11,1.64,4.07,2.1,5,2.41,10.17,4.5,15.2,6.85,1.11.52,2.42,1.07,3.47,1.67,9.37,5.42,9.38,18.27,10.72,27.76-.02.77-1.17.87-1.44.2-.43-3.94-.83-7.9-1.56-11.8-1.21-6.39-3.12-12.06-9.17-15.27-5.7-3.02-12.15-5.47-18.03-8.24-1.15-.54-2.3-1.09-3.41-1.73-.35,2.5-2.12,4.16-4.09,5.51-7.87,5.39-19.71,5.86-28.44,2.46-2.81-1.1-7.08-3.45-8.25-6.37-.09-.24-.48-1.71-.57-1.71-1.72,1.06-3.56,1.95-5.39,2.84-5.33,2.58-11.29,4.79-16.45,7.53-8.97,4.78-8.84,18.02-10.23,26.77-.76,1.17-1.38.4-1.34-.77.04-1.54.39-3.54.59-5.12,1.09-8.44,2.35-17.93,10.6-22.29,5.01-2.65,10.76-4.76,15.92-7.27,2.22-1.08,4.5-2.12,6.5-3.56.43-1.6.44-3.29.43-4.94,0-.47-.15-.93-.12-1.49.11-2.14,1.49-3.04,3.3-3.84,0-1.22.05-2.47.03-3.7,0-.42-.31-.59.22-.79-.71-.28-1-.91-1.28-1.58-.91-2.23-.82-4.8-1.12-7.16-.53.3-1.02-.03-1.49-.28-2.29-1.25-3.68-5.04-4.17-7.48-.32-1.6-.59-6.29.11-7.66s3.12-1.64,4.06-.34l-.35-6.45c-.07-7.01,1.55-11.8,7.39-15.92,8.55-6.02,20.55-5.61,28.54,1.17ZM39.94,8.71c1.18,1.3,1.92,3.53,1.99,5.27.16,4.09-2.36,6.83-4.32,10.08-.78,1.29-2.32,3.6-2.43,5-.09,1.21-.07,3.01,0,4.24.21,3.62,2.42,4.68,4.16,7.37,1.12,1.74,1.38,3.33,1.75,5.33.54,2.97.82,5.99,1.32,8.96,1.87,1.6,4.26,5.18,6.62,5.83s8.53.72,10.74-.17c1.88-.76,4.48-4.47,6.16-5.84.65-3.61.94-7.35,1.72-10.95s2.84-4.48,4.47-7.3c1.12-1.94,1.14-5.13.99-7.36-.09-1.37-.96-2.57-1.63-3.74-2.5-4.38-6.23-8.03-4.83-13.56.43-1.68,1.43-3.24,2.91-4.17-5.12-4.86-12.17-7.3-19.21-5.96-4.35.83-8.47,2.86-11.63,5.96,0,.08,1.05.83,1.21,1.01ZM35.07,26.25c1.43-3.72,5.56-7.4,5.81-11.49.13-2.06-.94-5.14-2.92-6.08-.17-.01-.79.9-.93,1.09-3.1,4.36-2.24,9.9-2.19,14.94l.23,1.54ZM73.45,26.14c-.09-5.16.91-10.41-1.54-15.19-.2-.38-1.14-1.98-1.43-2.12-.89-.4-2.14,1.71-2.42,2.38-1.93,4.73.72,7.47,3.04,11.17.74,1.17,1.37,2.47,2.09,3.61.07.11-.01.2.26.15ZM33.59,31.28c.18.13.21-.65.21-.73-.03-1.1-.36-2.81-1.48-3.31-1.46-.66-1.8.55-1.81,1.76.04.06.62-.69,1.37-.17l1.72,2.45ZM74.48,29.51c-.09.45.07,1.17,0,1.66.74-.3,1.05-1.34,1.55-1.93.59-.7.9-.68,1.76-.41-.24-1.26-.51-2.23-1.99-1.53-.81.38-.74.83-.98,1.54-.07.22-.33.57-.35.68ZM74.48,33.68c.02.43-.07.85-.17,1.26-.38,1.55-.78,3.48-.86,5.08,0,.19-.07.95.17.97,1.3-.52,2.05-1.62,2.65-2.83,1.29-2.62,1.62-5.92,1.63-8.82-.19.06-.2.3-.4.46-.22.18-.55.23-.71.37-.15.13-1.3,1.81-1.43,2.06-.07.14-.19.3-.18.46.53.97.92,1.95.76,3.09-.08.55-1.01,2.32-1.66,1.79-.64-1.08,1.09-1.81.59-2.99l-.41-.91ZM33.7,34.14c-.74,1.29-.02,1.56.37,2.54.45,1.15-.33,1.36-1.03.46s-.89-1.89-.53-3.01c.14-.43.71-1.1.61-1.51-.04-.15-1.39-2.11-1.58-2.31-.29-.31-.67-.45-.97-.74-.3,3.13.61,8.79,3.2,10.85.29.23,1.17.92,1.15.23-.03-1.05-.3-3.5-.53-4.5-.08-.37-.3-.68-.4-1.09-.03-.14.01-1.2-.28-.92ZM41.01,53.33c0-.32.01-.64-.01-.96-.16-1.75-.61-4.04-.93-5.8s-.55-3.67-1.51-5.11l-2.45-2.98c.41,2.76.34,5.63.81,8.38s1.29,3.23,2.9,5.1c.39.46.66,1.05,1.2,1.37ZM72.31,38.48c-.22-.06-.22.09-.32.19-2.31,2.35-2.92,3.65-3.52,6.87-.48,2.54-.8,5.12-1.18,7.67.23.06.22-.09.32-.19,2.4-2.35,3.44-3.82,3.89-7.19.33-2.44.37-4.93.82-7.35ZM41.43,55.88c-.13-.14-.36-.25-.53-.44-.78-.84-1.43-1.8-2.28-2.57-.12.88.11,1.84.12,2.68,0,1.16-.4,3.67.13,4.56,1.07,1.82,6.91,3.99,8.98,4.5,6.18,1.49,15.08.44,20.32-3.37,2.22-1.61,1.39-2.83,1.39-5.23,0-1.03.21-2.09.12-3.14-.23.14-.45.37-.63.57-2.14,2.34-5,5.71-7.43,7.65-2.55,2.04-11.01,2.09-13.87.74-1.74-.82-4.88-4.43-6.32-5.95ZM35.8,58.05c-.18.21-.33.55-.37.83-.22,1.53.1,3.52-.01,5.13-.12,1.69-.89,2.92-.28,4.62,1.24,3.45,7.88,6.19,11.22,7.05,5.03,1.3,11.86,1.17,16.84-.34,2.8-.85,8.4-3.48,9.71-6.17,1.03-2.12.11-3.37-.02-5.5-.09-1.5.18-3.35-.01-4.79-.12-.91-.96-1.41-1.65-1.89-.23-.03-.15,0-.17.17-.04.35-.1.92-.12,1.26-.01.26.12.49.11.78-.11,2.64-3.73,4.33-5.85,5.24-6.24,2.66-13.35,2.99-19.81.93-2.26-.72-7.83-3.03-8.13-5.7-.09-.78.32-1.72,0-2.56-.12-.1-1.31.8-1.44.95Z"/>
        <path d="M94.89,89.67c.51-.16.86.12.94.61-.76,4.86-2.02,9.67-3.11,14.47-.38,1-1.75.58-1.43-.51,1.29-4.4,1.76-9.47,3.11-13.79.08-.26.2-.69.48-.78Z"/>
        <path d="M12.99,89.67c.2-.04.42-.06.61.04.4.22.94,2.98,1.09,3.59.86,3.59,1.49,7.24,2.44,10.8.29,1.23-1.08,1.82-1.49.46-1.3-4.34-1.77-9.36-3.04-13.76-.02-.28.11-1.05.4-1.15Z"/>
        <path class="cls-1" d="M39.94,8.71c-.17-.18-1.21-.93-1.21-1.01,3.16-3.1,7.28-5.13,11.63-5.96,7.04-1.34,14.09,1.1,19.21,5.96-1.48.93-2.48,2.48-2.91,4.17-1.4,5.53,2.33,9.18,4.83,13.56.67,1.17,1.53,2.37,1.63,3.74.15,2.24.14,5.42-.99,7.36-1.63,2.82-3.68,3.64-4.47,7.3s-1.08,7.35-1.72,10.95c-1.68,1.37-4.27,5.07-6.16,5.84-2.21.89-8.44.81-10.74.17s-4.75-4.23-6.62-5.83c-.5-2.97-.77-6-1.32-8.96-.37-2-.63-3.59-1.75-5.33-1.74-2.69-3.95-3.75-4.16-7.37-.07-1.22-.09-3.03,0-4.24.11-1.4,1.65-3.71,2.43-5,1.96-3.25,4.48-5.99,4.32-10.08-.07-1.73-.81-3.97-1.99-5.27ZM52.55,39.33v-11.76s-.32-.56-.39-.64c-.49-.49-.99-.18-1.6-.22-2.57-.18-6.64-2.62-8.9-2.28-.54.08-1.93.89-2.43,1.22-.27.18-.71.45-.83.77,0,.2,1.69-.27,1.89-.28,2.19-.15,6.43,1.68,8.83,2.13.77.15,1.42.15,2.2.2l.11,10.51c.09.5.79.73,1.14.35ZM69.91,26.48c.3-.27-1.53-1.28-1.67-1.35-.81-.43-1.42-.8-2.38-.7-1.72.17-4.49,1.51-6.38,1.96-.48.11-1.03.24-1.51.31-.63.09-1.43-.23-1.77.52-.56,1.26,1.06,1.28,1.89,1.21,2.68-.23,5.89-1.68,8.6-2.14,1.21-.21,2.05-.12,3.23.2ZM49.33,30.12c.33-.67-.04-.95-.56-1.29-1.9-1.23-4.49-1.1-6.62-.58-.67.16-2.61.75-1.89,1.67.38.31,1.41-.29,1.87-.44s.94-.22,1.4-.37c-.82,1,.19,2.32,1.32,2.4,1.31.1,2.19-1.18,1.77-2.4.67-.03,2.19,1.35,2.72,1.01ZM64.88,29.23c.17-.18,2.51.86,2.91.8.64-.09.58-.66.1-1.01-1.04-.78-4.18-1.25-5.46-1.16-.8.06-3.59.76-3.59,1.77.45,1.51,1.8-.6,2.73-.51-.83,3.09,4.04,3.18,3.31.11ZM50.79,40.9c-.26.03-.58.38-.63.63-.17.96,1.39,1.27,2,1.61.54.29,1.32,1.02,1.93,1.04.47.02,1.24-.69,1.68-.93.51-.28,3.15-1.29,1.84-2.14-1.08-.69-2.48,1.67-3.64,1.59-.89-.06-2.26-1.9-3.18-1.81ZM60.74,48.11c-.21-.16-2.33-.36-2.76-.38-.76-.04-1.9-.07-2.63,0-.44.04-.99.32-1.37.32s-.84-.28-1.26-.32c-.63-.07-1.64-.03-2.29,0-.58.03-2.11.12-2.6.26-.43.12-.55.65-.26,1.01.46.57.96.16,1.51.12.95-.08,2.25-.21,3.17-.11.51.05.99.29,1.49.33.91.08,1.44-.28,2.29-.35,1.37-.11,2.85.32,4.12.24.73-.04,1.1-.72.59-1.11ZM57.66,52.16c.35-.34.07-1.23-.49-1.22-1.91.26-4.34-.14-6.17.1-.7.09-.62,1.01-.28,1.21.07.04,1.02.16,1.2.17,1.27.09,3.18.09,4.46,0,.24-.02,1.16-.14,1.28-.26Z"/>
        <path class="cls-5" d="M35.8,58.05c.13-.15,1.33-1.06,1.44-.95.33.84-.08,1.78,0,2.56.29,2.67,5.87,4.98,8.13,5.7,6.46,2.06,13.57,1.73,19.81-.93,2.12-.9,5.74-2.59,5.85-5.24.01-.29-.12-.51-.11-.78.02-.34.08-.92.12-1.26.02-.16-.06-.2.17-.17.69.49,1.52.98,1.65,1.89.2,1.44-.08,3.28.01,4.79.13,2.14,1.05,3.38.02,5.5-1.3,2.69-6.91,5.32-9.71,6.17-4.98,1.52-11.81,1.64-16.84.34-3.34-.86-9.98-3.6-11.22-7.05-.61-1.71.16-2.93.28-4.62.12-1.61-.2-3.6.01-5.13.04-.27.19-.62.37-.83Z"/>
        <path class="cls-3" d="M41.43,55.88c1.44,1.53,4.58,5.14,6.32,5.95,2.86,1.34,11.33,1.3,13.87-.74s5.29-5.31,7.43-7.65c.18-.2.4-.43.63-.57.09,1.05-.12,2.1-.12,3.14,0,2.4.83,3.61-1.39,5.23-5.24,3.81-14.15,4.86-20.32,3.37-2.07-.5-7.91-2.67-8.98-4.5-.52-.89-.12-3.4-.13-4.56,0-.84-.24-1.79-.12-2.68.85.77,1.5,1.74,2.28,2.57.17.19.4.3.53.44Z"/>
        <path class="cls-2" d="M35.07,26.25l-.23-1.54c-.05-5.04-.91-10.58,2.19-14.94.14-.19.76-1.11.93-1.09,1.98.95,3.05,4.02,2.92,6.08-.25,4.09-4.38,7.77-5.81,11.49Z"/>
        <path class="cls-2" d="M73.45,26.14c-.27.06-.18-.03-.26-.15-.73-1.14-1.36-2.44-2.09-3.61-2.32-3.7-4.96-6.44-3.04-11.17.28-.68,1.52-2.78,2.42-2.38.3.13,1.24,1.73,1.43,2.12,2.45,4.78,1.44,10.03,1.54,15.19Z"/>
        <path class="cls-2" d="M41.01,53.33c-.53-.32-.8-.92-1.2-1.37-1.61-1.86-2.45-2.47-2.9-5.1s-.4-5.62-.81-8.38l2.45,2.98c.96,1.44,1.2,3.42,1.51,5.11s.78,4.06.93,5.8c.03.32.02.64.01.96Z"/>
        <path class="cls-2" d="M72.31,38.48c-.44,2.42-.49,4.91-.82,7.35-.45,3.38-1.49,4.84-3.89,7.19-.1.1-.1.25-.32.19.38-2.55.7-5.13,1.18-7.67.61-3.22,1.21-4.52,3.52-6.87.1-.1.1-.25.32-.19Z"/>
        <path class="cls-2" d="M74.48,33.68l.41.91c.5,1.18-1.23,1.91-.59,2.99.65.53,1.58-1.24,1.66-1.79.16-1.14-.23-2.12-.76-3.09-.01-.16.11-.32.18-.46.13-.25,1.28-1.92,1.43-2.06.16-.14.49-.2.71-.37.2-.16.2-.4.4-.46,0,2.89-.34,6.2-1.63,8.82-.6,1.21-1.35,2.31-2.65,2.83-.24-.02-.18-.77-.17-.97.08-1.6.48-3.53.86-5.08.1-.41.19-.83.17-1.26Z"/>
        <path class="cls-2" d="M33.7,34.14c.29-.28.24.78.28.92.1.41.31.72.4,1.09.23,1,.5,3.45.53,4.5.02.69-.87,0-1.15-.23-2.59-2.06-3.5-7.72-3.2-10.85.3.29.68.43.97.74.19.2,1.54,2.16,1.58,2.31.1.42-.47,1.08-.61,1.51-.35,1.11-.18,2.09.53,3.01s1.48.68,1.03-.46c-.39-.98-1.11-1.25-.37-2.54Z"/>
        <path class="cls-2" d="M33.59,31.28l-1.72-2.45c-.75-.53-1.32.23-1.37.17.01-1.21.36-2.41,1.81-1.76,1.12.5,1.45,2.21,1.48,3.31,0,.07-.03.85-.21.73Z"/>
        <path class="cls-2" d="M74.48,29.51c.02-.11.28-.46.35-.68.24-.71.17-1.15.98-1.54,1.48-.7,1.75.27,1.99,1.53-.86-.27-1.17-.28-1.76.41-.51.59-.81,1.63-1.55,1.93.07-.49-.09-1.2,0-1.66Z"/>
        <path d="M52.55,39.33c-.35.39-1.05.15-1.14-.35l-.11-10.51c-.78-.05-1.43-.05-2.2-.2-2.39-.45-6.63-2.28-8.83-2.13-.2.01-1.89.48-1.89.28.12-.32.56-.59.83-.77.5-.33,1.89-1.14,2.43-1.22,2.26-.35,6.33,2.09,8.9,2.28.62.04,1.12-.27,1.6.22.07.07.39.6.39.64v11.76Z"/>
        <path d="M69.91,26.48c-1.17-.32-2.01-.41-3.23-.2-2.71.46-5.92,1.91-8.6,2.14-.83.07-2.45.05-1.89-1.21.33-.75,1.14-.43,1.77-.52.48-.07,1.03-.2,1.51-.31,1.89-.44,4.66-1.78,6.38-1.96.96-.1,1.58.28,2.38.7.14.08,1.98,1.09,1.67,1.35Z"/>
        <path d="M64.88,29.23c.73,3.07-4.14,2.97-3.31-.11-.93-.09-2.28,2.02-2.73.51,0-1.01,2.8-1.71,3.59-1.77,1.28-.09,4.42.38,5.46,1.16.48.36.54.92-.1,1.01-.39.06-2.74-.98-2.91-.8Z"/>
        <path d="M49.33,30.12c-.54.34-2.06-1.04-2.72-1.01.42,1.22-.45,2.5-1.77,2.4-1.13-.08-2.14-1.4-1.32-2.4-.45.15-.94.23-1.4.37s-1.49.74-1.87.44c-.72-.91,1.23-1.51,1.89-1.67,2.13-.51,4.72-.65,6.62.58.52.34.9.61.56,1.29Z"/>
        <path d="M60.74,48.11c.51.39.14,1.07-.59,1.11-1.27.08-2.75-.35-4.12-.24-.84.07-1.37.43-2.29.35-.51-.04-.98-.28-1.49-.33-.92-.1-2.22.04-3.17.11-.55.04-1.05.45-1.51-.12-.29-.36-.17-.89.26-1.01.49-.14,2.02-.23,2.6-.26.65-.03,1.66-.06,2.29,0,.41.05.88.32,1.26.32s.93-.28,1.37-.32c.74-.07,1.87-.04,2.63,0,.43.02,2.55.22,2.76.38Z"/>
        <path d="M50.79,40.9c.93-.1,2.3,1.75,3.18,1.81,1.16.07,2.56-2.29,3.64-1.59,1.31.84-1.33,1.86-1.84,2.14-.44.24-1.21.95-1.68.93-.61-.02-1.39-.75-1.93-1.04-.62-.34-2.17-.65-2-1.61.04-.25.37-.6.63-.63Z"/>
        <path d="M57.66,52.16c-.12.12-1.04.24-1.28.26-1.27.09-3.18.08-4.46,0-.19-.01-1.14-.13-1.2-.17-.34-.19-.42-1.11.28-1.21,1.83-.24,4.25.16,6.17-.1.57,0,.84.88.49,1.22Z"/>
      </g>
    </g>
  </g>
</svg>