<?xml version="1.0" encoding="UTF-8"?>
<svg id="Layer_1" data-name="Layer 1" xmlns="http://www.w3.org/2000/svg" viewBox="0 0 386.57 381.08">
  <defs>
    <style>
      .cls-1 {
        fill: #0c1c2e;
      }

      .cls-2 {
        font-family: Helvetica-Bold, Helvetica;
        font-size: 55.91px;
        font-weight: 700;
      }

      .cls-2, .cls-3 {
        fill: #0caae5;
      }

      .cls-4 {
        letter-spacing: -.09em;
      }

      .cls-5 {
        letter-spacing: -.02em;
      }
    </style>
  </defs>
  <g>
    <path class="cls-1" d="M193.28,378.58c-49.38,0-95.56-16.7-130.02-47.01C24.5,297.47,3.49,248.69,2.5,190.49c.99-58.1,22.01-106.88,60.78-140.98C97.74,19.2,143.92,2.5,193.28,2.5s95.56,16.7,130.02,47.01c38.76,34.09,59.77,82.88,60.76,141.07-.99,58.11-22.01,106.89-60.78,140.98-34.47,30.32-80.64,47.01-130.01,47.01Z"/>
    <path class="cls-3" d="M193.31,5c23.69,0,46.75,3.91,68.54,11.62,22.53,7.98,42.66,19.67,59.82,34.77,38.2,33.6,58.91,81.72,59.9,139.15-1,57.43-21.72,105.55-59.93,139.15-17.16,15.09-37.29,26.79-59.82,34.77-21.79,7.71-44.85,11.62-68.54,11.62s-46.76-3.91-68.55-11.62c-22.53-7.98-42.66-19.67-59.82-34.77C26.71,296.09,5.99,247.97,5,190.53c1-57.43,21.72-105.54,59.93-139.14,17.16-15.09,37.29-26.79,59.82-34.77,21.79-7.71,44.85-11.62,68.55-11.63h0M193.28,0C97.73,0,2.17,63.52,0,190.53c2.15,127.04,97.71,190.55,193.28,190.55s191.12-63.52,193.29-190.54C384.42,63.51,288.86,0,193.28,0h0Z"/>
  </g>
  <g id="AjE8qH">
    <g>
      <path class="cls-3" d="M124.13,52.65c16.74,16.41,37.28,14.3,53.85,29.39,5.71,5.2,10.17,12.74,15.61,18.31,6.41-8.06,12.63-16.92,21.13-22.93,10.96-7.74,24.84-9,36.26-15.6,6.13-3.54,10.35-8.58,15.72-12.93,1.89,6.41,1.35,14.24-.67,20.58-2.39,7.54-8.63,13.27-15.33,17.06,2.62,5.19,5.55,9.95,6.92,15.7,2.19,9.22,1.35,17.35-2.54,25.96,5.22,6.03,9.71,13.35,12.11,21,9.31,29.68-10.95,59.66-33.67,76.88-6.09,4.61-11.05,8.64-16.94,13.48-7.05,5.79-14.67,10.83-22.7,15.15-1.65.35-14.4-8.18-16.6-9.75-5.76-4.13-10.31-8.99-15.68-13.18-3.05-2.38-6.73-4.39-9.89-6.87-19.03-14.95-37.47-40.82-34.3-66.2,1.43-11.49,7.18-21.69,14.32-30.55-.9-2.85-2.3-5.22-2.94-8.22-2.68-12.41,1.1-22.85,7.3-33.4-5.82-3.14-10-6.28-13.19-12.18-3.99-7.36-5.49-17.66-2.22-25.46.43,0,2.92,3.23,3.45,3.75ZM259.68,64.49c-10.07,8.37-23.77,10.42-35.35,15.92-13.48,6.39-21.33,19.7-30.15,31.06l-.94.57c-7.96-9.35-14.16-20.71-24.28-27.99-10.91-7.84-25.98-9.21-37.28-16.14-1.76-1.08-3.22-2.53-4.94-3.63,1.86,9.43,10.6,16.08,19.1,19.49,10.88,4.36,26.42,6.78,32.56,18.13,8.87,16.4-10.93,35.12-25.9,23.56-10.96-8.46-9.13-23.27.75-31.74l-10.85-3.05c-8.3,10.33-10.1,24.08-3.35,35.77,5.17,8.96,14.13,14.36,23.95,16.99-1.57,1.12-5.61,4.8-7.5,4.4-.49-.1-3.24-1.23-3.95-1.53-6.08-2.53-11.26-6.96-16-11.24-11.73,13.32-14.33,30.59-7.94,47.27,4.14,10.8,11.59,21.16,19.4,29.53-2.1-4.66-3.63-9.48-3.9-14.6v-46.22c1.47,1.81,6.37,4.25,6.66,6.41.78,13.26-1.12,27.85-.01,40.96,1.27,15.11,20.2,32.96,32.01,41.29,3.7,2.61,7.66,4.85,11.53,7.2,3.91-2.23,7.86-4.46,11.55-7.03,12.7-8.84,31.06-26.78,32.26-43l.07-40.29,6.54-5.54v45.81c-.42,2.89-.56,5.54-1.36,8.39-.68,2.43-1.89,4.74-2.92,7.02,16.03-17.34,29.96-40.88,19.44-64.86-1.94-4.42-4.71-8.34-7.36-12.34-.76-.53-2.07,1.82-2.47,2.2-5.37,5.07-12.12,9.25-19.37,10.84l-5.83-4.66c19.59-3.84,33.48-23.54,26.03-43.19-.7-1.85-4.74-9.6-6.65-9.57l-10.02,3.05c2.61,2.89,5.52,5.4,7.09,9.09,7.03,16.54-11.69,33.59-26.32,22.81-10.79-7.95-10.52-21.51-.45-29.94,12.86-10.75,31.18-8.38,43.01-22.88,1.71-2.1,2.47-5.73,3.17-8.32ZM162.13,99.31c-12.89,1.27-12.58,23.59,3.35,21.67,13.04-1.57,11.58-23.15-3.35-21.67ZM220.2,99.28c-2.07.53-5.89,3.62-6.85,5.62-6.38,13.32,10.91,22.11,18.65,11.63,5.95-8.06-2.22-19.7-11.8-17.26Z"/>
      <path class="cls-3" d="M230.44,66.43l-7.62,2.72c-6.82-4.56-14.87-6.67-22.99-7.39-8.77-.77-17.7-.52-25.74,2.32-3.57,1.26-7.01,2.94-10.18,5l-7.15-2.65c13.16-12.62,34.41-13.86,51.54-10.4,7.96,1.61,16.23,4.73,22.15,10.4Z"/>
      <path class="cls-1" d="M259.68,64.49c-.7,2.6-1.46,6.22-3.17,8.32-11.83,14.5-30.16,12.13-43.01,22.88-10.08,8.43-10.35,22,.45,29.94,14.63,10.78,33.36-6.27,26.32-22.81-1.57-3.69-4.48-6.2-7.09-9.09l10.02-3.05c1.91-.03,5.95,7.72,6.65,9.57,7.45,19.64-6.44,39.35-26.03,43.19l5.83,4.66c7.25-1.59,14-5.77,19.37-10.84.4-.38,1.71-2.73,2.47-2.2,2.65,3.99,5.42,7.92,7.36,12.34,10.53,23.98-3.41,47.52-19.44,64.86,1.04-2.28,2.24-4.59,2.92-7.02.8-2.85.93-5.5,1.36-8.39v-45.81s-6.54,5.54-6.54,5.54l-.07,40.29c-1.2,16.22-19.56,34.16-32.26,43-3.7,2.58-7.65,4.8-11.55,7.03-3.87-2.35-7.83-4.58-11.53-7.2-11.81-8.33-30.74-26.18-32.01-41.29-1.1-13.11.8-27.69.01-40.96-.28-2.16-5.19-4.6-6.65-6.41v46.22c.26,5.12,1.79,9.94,3.89,14.6-7.81-8.37-15.26-18.73-19.4-29.53-6.38-16.67-3.78-33.95,7.94-47.27,4.74,4.28,9.92,8.71,16,11.24.71.3,3.46,1.43,3.95,1.53,1.9.39,5.93-3.28,7.5-4.4-9.82-2.63-18.78-8.03-23.95-16.99-6.74-11.69-4.94-25.44,3.35-35.77l10.85,3.05c-9.87,8.47-11.71,23.28-.75,31.74,14.97,11.56,34.77-7.17,25.9-23.56-6.14-11.35-21.68-13.77-32.56-18.13-8.5-3.41-17.24-10.06-19.1-19.49,1.72,1.1,3.18,2.55,4.94,3.63,11.31,6.93,26.37,8.3,37.28,16.14,10.12,7.27,16.33,18.64,24.28,27.99l.94-.57c8.83-11.36,16.67-24.67,30.15-31.06,11.58-5.5,25.29-7.55,35.35-15.92ZM193.78,140.52l9.31-13.91-9.88-11.43-9.5,11.18,10.07,14.17ZM207.44,203.3c-.93-9.65,7.81-13.48,10.34-22.22,2.78-9.6-.8-20.36-8.38-26.72-19.06-15.98-48.27,3.73-40.19,27.71,2.62,7.78,11.52,12.1,9.77,21.62h5.65l.51-.88c-.46-2.57-.32-5.03-.98-7.62-1.79-7.06-8.91-10.49-9.82-18.25-2.99-25.54,32.71-29.7,37.67-7.65,3.32,14.76-8.34,17.06-9.98,28.79-.24,1.72.23,3.49-.44,5.22h5.85ZM196.52,183.41c2.55-.65,7.31-.76,5.64-4.67-.83-1.95-2.84-.8-4.26-.77-4.09.08-8.21-.03-12.28-.22-3.7,3.85,1.37,5.32,4.66,5.66v19.89h6.24v-19.89ZM207.05,208.76h-27.29c.07,1.19-.36,4.2.78,4.88.29.17,5.81.55,6.81.6,3.76.17,8.37.17,12.12,0,1.49-.07,4.91-.23,6.14-.49,2.36-.51,1.22-3.17,1.45-4.98ZM203.54,219.28h-19.89c-.93,6.68,9.02,5.78,13.47,5.48,4.01-.28,6.13-1.03,6.42-5.48Z"/>
      <path class="cls-1" d="M220.2,99.28c9.58-2.44,17.75,9.19,11.8,17.26-7.74,10.48-25.03,1.68-18.65-11.63.96-2.01,4.78-5.1,6.85-5.62Z"/>
      <path class="cls-1" d="M162.13,99.31c14.93-1.47,16.4,20.1,3.35,21.67-15.93,1.92-16.24-20.4-3.35-21.67Z"/>
      <path class="cls-3" d="M207.44,203.3h-5.85c.67-1.72.2-3.5.44-5.22,1.64-11.74,13.3-14.03,9.98-28.79-4.96-22.05-40.66-17.89-37.67,7.65.91,7.76,8.03,11.19,9.82,18.25.66,2.59.51,5.05.98,7.62l-.51.88h-5.65c1.75-9.52-7.14-13.84-9.77-21.62-8.08-23.98,21.13-43.69,40.19-27.71,7.58,6.36,11.16,17.12,8.38,26.72-2.53,8.74-11.27,12.57-10.34,22.22Z"/>
      <polygon class="cls-3" points="193.78 140.52 183.72 126.35 193.22 115.18 203.09 126.61 193.78 140.52"/>
      <path class="cls-3" d="M196.52,183.41v19.89h-6.24v-19.89c-3.29-.34-8.36-1.81-4.66-5.66,4.07.19,8.19.3,12.28.22,1.43-.03,3.43-1.18,4.26.77,1.67,3.92-3.09,4.03-5.64,4.67Z"/>
      <path class="cls-3" d="M207.05,208.76c-.24,1.81.91,4.47-1.45,4.98-1.23.27-4.65.42-6.14.49-3.75.18-8.37.17-12.12,0-1-.04-6.52-.43-6.81-.6-1.14-.67-.71-3.69-.78-4.88h27.29Z"/>
      <path class="cls-3" d="M203.54,219.28c-.29,4.44-2.41,5.2-6.42,5.48-4.45.31-14.4,1.21-13.47-5.48h19.89Z"/>
    </g>
  </g>
  <text class="cls-2" transform="translate(89.45 310.75)"><tspan class="cls-4" x="0" y="0">T</tspan><tspan class="cls-5" x="28.91" y="0">alk</tspan><tspan class="cls-4" x="103.28" y="0">T</tspan><tspan class="cls-5" x="132.19" y="0">alk</tspan></text>
</svg>